<?xml version="1.0" standalone="no"?>
<!DOCTYPE svg PUBLIC "-//W3C//DTD SVG 20010904//EN"
 "http://www.w3.org/TR/2001/REC-SVG-20010904/DTD/svg10.dtd">
<svg version="1.0" xmlns="http://www.w3.org/2000/svg"
 width="920.000000pt" height="520.000000pt" viewBox="0 0 920.000000 520.000000"
 preserveAspectRatio="xMidYMid meet">
<metadata>
Created by potrace 1.16, written by Peter Selinger 2001-2019
</metadata>
<g transform="translate(0.000000,520.000000) scale(0.100000,-0.100000)"
fill="#000000" stroke="none">
<path d="M4153 5089 c-46 -17 -100 -134 -90 -196 5 -29 3 -35 -19 -43 -89 -34
-219 -108 -250 -143 -33 -35 -35 -43 -31 -86 2 -25 7 -55 11 -66 7 -19 3 -20
-71 -20 -112 -1 -181 -30 -221 -93 -39 -63 -66 -166 -60 -235 3 -40 15 -72 41
-116 l36 -61 -39 6 c-106 17 -158 -23 -224 -170 -25 -57 -46 -112 -46 -122 1
-37 47 -90 104 -121 17 -10 16 -11 -15 -18 -19 -4 -64 -15 -100 -26 l-66 -19
-16 -57 c-21 -74 -29 -176 -18 -206 6 -15 26 -31 51 -41 40 -16 41 -18 26 -35
-9 -10 -13 -21 -9 -26 5 -4 3 -6 -3 -2 -5 3 -23 -4 -39 -17 l-28 -23 30 -21
c18 -13 34 -18 43 -12 7 4 19 6 27 3 9 -4 11 0 7 11 -3 9 -13 15 -22 14 -8 -2
-17 3 -19 10 -3 7 4 12 16 12 12 0 21 -4 21 -10 0 -17 40 -11 70 11 19 14 36
20 51 16 15 -4 30 0 41 10 26 23 22 4 -4 -26 -22 -25 -22 -25 15 2 20 16 41
26 46 23 5 -3 14 1 21 9 7 8 19 15 28 15 13 0 12 -3 -3 -20 -10 -11 -13 -20
-7 -20 6 0 12 5 14 11 2 7 42 17 88 24 75 11 86 11 97 -4 12 -15 14 -15 24 2
12 20 29 23 29 4 0 -17 57 -16 89 2 21 12 26 11 37 -4 12 -16 14 -16 19 -3 4
10 19 15 44 15 35 0 120 42 198 98 30 21 39 19 35 -8 -3 -21 -3 -21 10 -3 12
15 19 16 35 8 17 -9 24 -7 43 16 13 15 20 20 17 10 -8 -24 10 -33 29 -14 8 9
25 16 37 16 13 0 31 9 40 21 10 11 21 18 24 15 3 -3 0 -12 -7 -21 -7 -8 -8
-15 -3 -15 10 0 76 67 141 143 22 27 44 62 48 80 6 27 8 29 18 15 9 -12 34
-18 97 -21 46 -3 73 -2 59 2 l-25 7 24 7 c13 3 32 2 42 -4 23 -12 29 -11 29 1
0 6 -9 10 -19 10 -11 0 -23 5 -26 10 -4 6 15 10 49 10 30 0 66 5 80 11 25 12
100 4 92 -9 -6 -10 80 -9 90 1 4 4 -11 7 -34 7 -25 0 -42 5 -42 11 0 9 28 10
100 5 60 -4 100 -3 100 2 0 5 29 13 65 17 36 3 63 10 61 13 -2 4 15 7 37 7 42
0 120 32 112 45 -3 4 8 12 23 18 15 5 64 23 110 40 75 27 205 95 337 175 28
17 61 36 75 43 14 8 39 25 55 38 l30 25 -30 2 c-16 1 -37 0 -45 -1 -12 -1 -13
1 -2 11 21 22 14 28 -20 18 -42 -12 -40 -12 -34 9 8 23 -9 50 -17 28 -10 -26
-36 -18 -51 17 -18 39 -45 70 -75 86 -21 12 -22 14 -6 34 31 42 55 102 55 139
0 82 -97 137 -243 139 -45 0 -137 6 -204 13 -113 11 -125 14 -155 41 -24 22
-23 18 7 -14 64 -69 281 -227 427 -309 35 -21 56 -39 56 -50 -1 -24 24 -115
35 -127 9 -10 2 69 -10 109 -4 15 -2 18 12 13 9 -4 21 -7 26 -7 5 0 10 -12 10
-27 1 -18 3 -22 6 -10 3 10 10 16 16 14 23 -7 46 -91 46 -169 l1 -76 -126 -67
c-87 -47 -129 -64 -134 -56 -5 9 -10 8 -19 -3 -14 -16 -99 -52 -106 -44 -6 6
73 58 88 58 5 0 8 3 5 6 -9 8 -89 -16 -83 -26 7 -12 -39 1 -47 13 -4 7 -12 6
-22 -2 -18 -15 -73 -18 -87 -4 -6 6 -12 17 -13 24 -9 44 -36 68 -36 32 0 -13
-7 -10 -28 13 -21 23 -32 28 -43 21 -11 -7 -28 0 -65 26 -48 35 -153 75 -110
42 11 -8 25 -15 32 -15 6 0 20 -11 30 -25 10 -14 27 -25 36 -25 22 0 23 -13 3
-30 -13 -10 -23 -10 -55 5 -22 10 -40 21 -40 25 0 4 -9 10 -20 13 -11 3 -20
12 -20 20 0 9 -7 13 -17 11 -10 -3 -27 2 -38 10 -19 15 -19 15 12 22 18 3 31
11 30 18 -1 6 8 11 19 11 12 1 41 17 65 36 24 19 65 50 91 69 27 18 46 35 44
38 -3 2 -15 -3 -28 -12 -28 -20 -39 -20 -32 -1 7 17 -21 21 -31 5 -3 -5 -1
-10 4 -10 17 0 -11 -39 -32 -46 -9 -3 -15 -9 -12 -13 4 -8 -51 -35 -90 -45
-11 -2 -40 -1 -65 3 l-45 7 63 19 c34 11 62 23 62 27 0 11 -24 10 -36 -1 -12
-11 -114 -21 -114 -11 0 4 11 11 25 14 14 4 25 11 25 17 0 6 -8 7 -22 2 -25
-8 -86 -12 -105 -5 -6 2 -14 10 -17 18 -5 12 -2 12 15 3 11 -6 23 -8 27 -5 3
3 0 6 -7 6 -8 0 -11 7 -7 15 3 9 0 15 -9 15 -8 0 -15 5 -15 10 0 9 29 14 68
13 7 -1 11 5 8 13 -3 8 -2 13 2 12 4 -1 14 1 22 4 8 3 36 13 61 22 47 17 71
37 82 69 9 23 3 22 -44 -13 -23 -16 -45 -27 -50 -24 -4 2 -17 -4 -29 -16 -22
-22 -87 -29 -74 -8 5 8 2 9 -9 5 -16 -6 -22 6 -18 39 1 6 -12 9 -31 7 -18 -2
-27 0 -20 3 6 3 12 12 12 19 0 10 -8 10 -42 -2 -22 -8 -47 -12 -55 -9 -26 11
-12 25 32 31 47 8 85 29 72 41 -4 4 -13 2 -19 -4 -7 -7 -21 -12 -32 -12 -17 0
-14 6 18 39 21 22 36 45 33 53 -4 9 -6 8 -6 -4 -1 -11 -7 -15 -21 -11 -10 3
-35 -5 -55 -17 -39 -24 -43 -21 -19 16 15 22 15 24 0 18 -25 -10 -19 15 7 26
19 9 17 9 -10 4 -17 -3 -34 -1 -38 6 -3 5 -12 7 -18 3 -31 -19 -58 -5 -32 17
10 9 15 9 15 1 0 -6 9 -2 21 10 15 15 18 24 10 32 -8 8 -11 6 -11 -6 0 -9 -7
-17 -16 -17 -9 0 -12 5 -8 13 5 8 2 7 -9 -2 -27 -21 -32 -6 -9 27 20 28 20 29
1 27 -10 -1 -25 -9 -32 -20 -8 -10 -19 -16 -26 -14 -9 3 -6 12 8 28 12 13 21
25 21 27 0 8 -36 -11 -47 -25 -11 -13 -14 -14 -22 -2 -7 11 -9 11 -13 0 -4
-12 -7 -12 -21 0 -9 7 -15 17 -12 21 3 5 -1 11 -7 13 -18 8 11 27 29 20 7 -3
13 -1 13 5 0 12 -26 23 -34 14 -11 -10 -35 -11 -33 0 1 6 -12 15 -29 22 -20 7
-29 16 -26 26 3 8 1 12 -3 8 -5 -4 -14 -3 -22 4 -8 6 -13 7 -11 2 2 -5 -1 -10
-7 -11 -5 -2 -10 3 -10 10 0 7 -8 21 -17 31 -21 21 -22 28 -5 45 10 11 9 13
-3 9 -8 -3 -29 1 -47 9 -42 17 -53 16 -29 -2 11 -8 18 -15 15 -16 -2 0 -12 -2
-22 -4 -13 -3 -17 3 -15 26 2 26 6 29 38 29 49 0 78 20 30 20 -31 1 -33 2 -17
14 16 13 16 14 -4 19 -15 4 -20 11 -17 25 5 16 0 19 -31 17 -20 -2 -30 -1 -23
2 10 4 10 8 2 18 -9 11 -7 17 9 27 27 16 27 31 1 23 -27 -9 -27 25 0 50 33 30
82 13 144 -51 62 -64 147 -117 229 -145 l58 -20 37 21 c33 18 51 20 166 18
116 -3 130 -5 140 -23 6 -11 26 -37 44 -59 17 -22 32 -50 32 -63 0 -13 4 -23
9 -23 13 0 21 27 21 73 0 39 1 40 17 24 19 -18 23 -74 10 -122 -8 -28 -8 -29
7 -10 8 11 16 30 16 42 0 38 15 34 53 -16 20 -26 46 -56 59 -67 12 -10 7 1
-12 25 -19 24 -48 62 -64 85 -86 124 -174 160 -377 150 -78 -3 -99 -1 -109 11
-13 16 -256 136 -325 161 -49 18 -113 24 -142 13z m310 -102 c121 -58 161 -86
145 -103 -3 -2 -32 2 -64 9 -65 15 -152 56 -199 93 -16 14 -34 28 -40 32 -49
37 -64 50 -59 55 9 8 66 -14 217 -86z m-383 -182 c0 -7 16 -47 36 -89 40 -87
144 -206 243 -276 59 -42 171 -100 194 -100 8 0 20 -12 27 -27 8 -16 24 -42
36 -58 46 -64 82 -225 70 -309 -6 -41 -16 -56 -57 -96 -52 -50 -119 -78 -158
-65 -32 10 -28 39 5 31 34 -9 118 37 144 79 18 29 19 38 9 86 -6 30 -21 74
-32 99 -19 38 -27 45 -55 48 -37 4 -134 -22 -169 -45 -13 -9 -31 -29 -39 -46
l-16 -30 -29 44 c-23 34 -28 51 -24 75 4 21 0 35 -10 44 -11 9 -15 9 -15 1 0
-7 -5 -9 -12 -5 -9 6 -9 9 0 12 7 2 12 10 12 19 0 9 -6 12 -18 9 -27 -9 -65
31 -59 60 3 16 0 24 -9 24 -17 0 -18 14 -4 41 9 16 7 19 -11 19 -17 0 -19 -3
-10 -14 8 -10 9 -16 1 -21 -13 -8 -32 4 -25 16 4 5 -1 9 -9 9 -19 0 -20 13 -6
41 10 17 7 19 -20 19 -23 0 -30 4 -30 19 0 11 6 22 13 24 6 3 -9 3 -35 0 -52
-6 -58 0 -31 29 14 15 14 18 2 13 -9 -3 -22 1 -29 10 -11 13 -8 16 18 21 18 4
32 14 35 25 6 22 -1 25 -17 5 -13 -16 -76 -30 -76 -16 0 14 39 32 55 26 7 -2
19 2 27 11 12 14 9 15 -24 9 -21 -4 -38 -3 -38 2 0 5 24 25 54 46 30 21 57 45
61 54 4 11 -3 8 -20 -8 -15 -14 -30 -24 -33 -24 -4 1 -27 -12 -51 -29 -29 -19
-59 -31 -87 -33 -48 -3 -60 10 -19 20 16 4 23 11 19 18 -4 7 -3 8 4 4 17 -10
53 12 127 82 51 47 65 66 57 74 -8 8 -20 9 -44 1 -84 -28 -156 -64 -187 -92
-40 -37 -50 -35 -20 3 28 35 85 71 179 112 74 32 100 32 100 -1z m-284 -311
c172 -91 252 -174 474 -490 30 -43 81 -108 113 -144 74 -83 127 -187 127 -247
0 -75 -38 -126 -124 -164 -67 -29 -124 -27 -189 8 -44 24 -54 35 -69 78 -23
63 -22 63 4 30 30 -38 132 -85 187 -85 106 0 173 100 126 189 -20 39 -96 105
-152 131 l-47 22 -66 -69 c-36 -37 -74 -79 -82 -92 l-16 -23 -37 36 c-19 20
-40 36 -46 36 -5 0 -39 27 -74 60 -35 33 -71 60 -80 60 -8 0 -28 18 -43 40
-18 26 -32 37 -44 34 -18 -5 -51 44 -46 67 2 7 -6 17 -18 23 -11 6 -28 19 -38
29 -10 9 -24 17 -32 17 -8 0 -14 5 -14 10 0 6 -7 10 -15 10 -18 0 -18 1 -5 35
9 23 8 26 -5 21 -23 -8 -30 20 -12 48 20 30 10 42 -16 19 -19 -17 -20 -17 -15
2 3 11 9 28 13 39 7 16 6 17 -13 7 -11 -6 -23 -11 -26 -11 -10 0 -6 39 4 45 6
3 10 11 10 16 0 6 -4 7 -10 4 -13 -8 -13 15 0 35 6 10 10 11 10 3 0 -7 7 -13
15 -13 8 0 15 4 15 8 0 9 72 64 129 99 38 24 39 26 14 59 -10 13 -23 20 -34
17 -11 -3 -19 0 -19 6 0 6 -8 11 -17 12 -15 0 -15 2 2 9 42 18 92 10 161 -26z
m792 -433 c30 -68 38 -127 21 -157 -37 -70 -186 -102 -164 -35 4 14 -1 31 -18
53 -36 49 -30 87 24 141 35 36 51 45 80 46 34 1 38 -2 57 -48z m-1103 -50 c22
-10 94 -58 160 -108 67 -49 177 -124 245 -166 178 -108 214 -146 231 -245 10
-53 8 -64 -10 -100 -21 -42 -68 -82 -95 -82 -26 0 -19 16 18 41 59 40 70 92
37 165 -39 85 -127 154 -198 154 -25 0 -38 -10 -75 -59 -67 -85 -71 -95 -58
-140 14 -54 75 -106 147 -127 79 -23 47 -31 -36 -9 -74 20 -89 29 -102 62 -5
15 -17 23 -31 23 -17 0 -19 -3 -9 -9 8 -5 9 -11 3 -14 -5 -4 -24 22 -42 57
-23 47 -30 72 -26 93 5 24 2 30 -27 43 -43 20 -45 51 -8 125 17 33 28 61 26
63 -2 3 -10 -7 -16 -22 -7 -14 -15 -26 -19 -26 -4 0 -13 -20 -19 -45 -9 -34
-18 -48 -37 -55 -35 -14 -39 -13 -72 15 -19 16 -32 21 -34 14 -6 -17 -68 18
-69 39 0 9 -3 12 -5 5 -3 -7 -11 -10 -19 -7 -11 4 -10 17 5 68 10 35 23 73 30
85 6 13 10 25 8 27 -3 2 -15 -19 -28 -46 -32 -68 -56 -64 -30 4 6 18 6 26 -1
26 -6 0 -7 5 -4 10 4 6 10 8 15 5 10 -6 32 29 25 39 -3 3 -2 4 2 1 7 -6 43 24
43 37 0 4 -4 8 -10 8 -5 0 -9 -3 -9 -7 3 -21 -3 -25 -18 -11 -22 18 -56 32
-48 19 3 -5 1 -12 -5 -16 -17 -11 -11 31 8 47 20 18 68 36 97 37 11 0 38 -8
60 -18z m830 -238 c17 -9 49 -34 73 -56 49 -48 68 -100 52 -142 -9 -23 -15
-27 -39 -22 -16 3 -44 2 -63 -4 -40 -11 -96 8 -135 45 -26 24 -29 43 -9 71 7
11 16 39 19 63 9 74 27 82 102 45z m-367 -137 c41 -21 88 -76 111 -126 24 -52
26 -80 8 -80 -7 0 -28 -8 -47 -19 -55 -29 -92 -34 -132 -16 -46 19 -54 31 -38
61 11 20 10 30 -4 63 -18 39 -17 62 6 109 13 26 55 30 96 8z m-489 -58 c40
-14 98 -66 111 -98 7 -18 10 -52 8 -82 -4 -41 -11 -57 -33 -75 -15 -13 -30
-21 -34 -17 -3 4 0 9 7 11 6 3 10 9 7 13 -3 5 -12 7 -19 4 -11 -4 -13 10 -9
79 6 95 0 132 -22 141 -16 6 -126 -19 -160 -37 -29 -15 -35 -27 -35 -75 0 -59
22 -99 60 -107 42 -9 37 -21 -11 -29 -35 -6 -44 -3 -56 14 -14 20 -16 20 -28
3 -13 -17 -14 -17 -24 7 -6 15 -10 19 -10 9 -1 -22 -30 -47 -32 -28 -1 8 0 19
1 24 4 17 1 78 -6 118 -6 41 -28 50 -38 15 -4 -16 -8 -20 -16 -12 -7 7 -7 22
2 50 11 33 20 41 63 58 86 32 208 39 274 14z m25 -54 c10 -25 7 -74 -4 -74 -5
0 -10 5 -10 11 0 5 -4 8 -8 5 -5 -3 -7 -18 -4 -34 5 -35 -18 -56 -67 -59 -49
-3 -77 21 -85 74 -7 49 3 58 89 79 68 17 82 17 89 -2z"/>
<path d="M6354 4159 c28 -4 61 -16 75 -26 32 -23 118 -193 127 -249 13 -87
-70 -193 -301 -384 -72 -59 -163 -128 -203 -154 -81 -53 -97 -72 -111 -136
-13 -58 -6 -63 15 -11 16 40 36 52 50 29 5 -7 2 -9 -7 -4 -8 4 -5 0 5 -8 25
-20 42 -21 26 -1 -10 12 -9 15 4 15 16 0 16 1 2 16 -9 8 -16 21 -15 27 0 9 2
8 6 0 7 -18 30 -16 37 3 5 13 8 14 27 1 24 -18 59 -11 77 15 7 10 20 18 28 18
8 0 14 4 14 10 0 5 -7 7 -15 4 -8 -4 -15 -1 -15 6 0 6 -4 9 -9 5 -5 -3 -12 -1
-16 5 -8 12 1 13 43 0 27 -7 33 -6 29 4 -4 10 1 12 14 9 12 -4 29 3 44 17 13
12 28 19 33 16 6 -3 9 5 8 18 0 14 -6 22 -13 19 -7 -3 -13 0 -13 6 0 14 23 14
36 1 15 -15 52 -1 57 22 4 13 11 18 20 15 11 -4 13 0 10 14 -4 15 0 19 22 19
22 0 25 3 16 14 -18 21 30 67 55 53 16 -8 17 -7 7 4 -15 16 -17 29 -3 29 5 0
16 -12 24 -27 8 -16 15 -22 16 -14 0 8 -9 25 -21 37 -18 19 -19 25 -8 37 12
13 18 13 42 1 15 -8 27 -19 27 -25 0 -8 -5 -7 -15 1 -20 16 -30 7 -13 -11 8
-8 24 -30 36 -49 l23 -35 -7 40 c-11 64 -21 83 -54 100 -18 9 -30 19 -27 22 3
2 16 -1 29 -8 12 -7 26 -12 30 -11 14 4 38 -45 55 -112 13 -55 14 -76 5 -117
-16 -66 -65 -141 -148 -225 -73 -74 -94 -92 -187 -164 -65 -51 -147 -149 -147
-177 0 -10 -9 -35 -20 -56 -27 -50 -25 -63 6 -38 14 11 33 17 42 14 9 -3 14
-3 10 2 -4 4 -3 14 4 22 9 11 14 11 28 -2 15 -14 16 -12 12 16 -4 31 -4 31 28
24 23 -5 30 -4 26 4 -4 6 0 14 8 17 8 3 18 15 22 26 3 11 25 28 47 38 23 10
36 19 30 19 -27 2 -11 19 32 37 41 17 59 34 35 34 -5 0 -10 5 -10 10 0 6 6 10
13 10 18 0 72 52 72 70 0 8 10 16 23 18 24 4 29 17 10 28 -8 5 -5 10 8 14 24
10 38 8 40 -5 0 -5 2 -17 3 -25 1 -12 3 -13 10 -1 5 7 5 27 1 42 -9 32 -2 42
20 28 8 -5 24 -9 35 -9 17 1 18 2 5 13 -8 7 -16 20 -17 30 -2 25 36 16 97 -23
124 -80 143 -165 58 -260 -56 -62 -285 -252 -389 -323 -136 -93 -282 -216
-314 -266 -29 -46 -43 -87 -24 -76 9 6 11 3 6 -8 -8 -21 6 -22 23 -2 7 9 20
13 28 10 10 -3 12 0 8 10 -10 28 37 41 84 22 47 -18 51 -7 13 30 l-28 26 53
-5 c45 -4 50 -3 40 10 -11 13 -9 14 12 7 14 -4 29 -11 35 -16 14 -14 28 -11
22 5 -3 8 0 22 8 32 13 18 14 18 32 1 22 -19 44 -24 25 -5 -20 20 -14 30 11
17 l22 -12 -23 26 c-13 14 -19 28 -14 31 5 3 17 -3 27 -14 10 -11 24 -20 32
-20 8 0 13 -11 13 -29 0 -66 36 -111 89 -111 22 0 61 44 61 70 0 25 30 27 31
3 0 -10 5 -3 11 16 17 59 3 98 -43 122 -22 11 -38 25 -36 32 2 7 1 22 -4 33
-11 31 -1 36 35 17 l31 -16 -24 27 c-14 14 -32 26 -42 26 -10 0 -20 4 -24 9
-8 15 67 1 86 -15 33 -29 63 -6 34 26 -21 24 -13 55 13 46 10 -4 5 4 -11 19
-18 16 -23 25 -13 25 8 0 18 -5 22 -11 4 -8 9 -7 15 2 4 8 3 16 -3 20 -17 11
2 30 23 24 15 -5 19 -1 20 22 1 20 3 22 6 9 7 -25 -45 -359 -64 -413 -22 -66
-82 -124 -173 -171 -45 -23 -95 -42 -111 -42 -17 0 -38 -4 -48 -10 -10 -5 -81
-24 -157 -41 -77 -17 -166 -38 -199 -46 -33 -8 -103 -23 -155 -34 -98 -20
-196 -49 -265 -79 -22 -10 -49 -20 -60 -23 -11 -3 -29 -8 -40 -12 -17 -6 -18
-5 -5 7 8 7 21 24 28 36 9 16 -5 8 -44 -23 -38 -31 -63 -45 -76 -42 -12 4 -26
-2 -36 -15 -24 -28 -69 -50 -77 -38 -3 6 1 10 9 10 8 0 18 5 22 12 5 8 2 9
-12 4 -10 -5 -28 -10 -39 -11 -11 -2 -33 -8 -48 -14 -34 -13 -40 -14 -33 -3 6
10 -56 0 -122 -19 -49 -13 -53 -11 -46 18 4 15 11 20 22 16 14 -5 15 -3 5 7
-8 9 -31 13 -60 11 -60 -3 -83 -15 -76 -41 4 -14 0 -20 -13 -22 -11 0 -31 -2
-45 -3 -14 -1 -31 -5 -37 -9 -16 -10 -27 15 -11 25 8 5 23 9 34 8 42 -3 54 1
49 15 -3 7 3 17 13 21 16 6 16 8 -4 16 -17 6 -23 16 -23 41 0 18 -5 40 -10 48
-8 11 -10 1 -8 -35 l3 -50 -44 -3 -44 -3 6 35 c3 20 2 36 -4 36 -5 0 -9 6 -9
14 0 7 -7 19 -16 27 -13 11 -14 9 -9 -14 6 -24 4 -27 -18 -27 -14 0 -29 5 -32
10 -5 8 -11 7 -21 -1 -11 -9 -19 -8 -35 7 -19 17 -20 17 -26 -4 -3 -12 -11
-22 -17 -22 -16 0 -56 42 -56 59 0 7 -5 9 -10 6 -8 -5 -7 -11 0 -20 7 -8 9
-19 6 -24 -9 -13 -36 -2 -36 14 0 17 -40 24 -63 10 -14 -8 -21 -6 -32 9 -14
18 -16 19 -34 2 -18 -16 -20 -16 -35 6 -15 21 -16 21 -17 3 0 -19 -1 -19 -9 1
-5 12 -14 25 -20 29 -9 6 -9 2 -1 -14 9 -17 9 -21 -3 -21 -7 0 -17 12 -21 28
l-8 27 -7 -25 c-7 -25 -7 -25 -23 10 -15 32 -16 33 -17 10 0 -18 -3 -21 -9
-11 -8 12 -10 12 -14 0 -2 -8 -3 -5 -1 6 1 11 -15 54 -36 95 -22 41 -39 71
-40 67 0 -4 7 -21 15 -36 14 -29 14 -29 -10 -17 -13 6 -32 27 -41 47 -18 42
-67 99 -84 99 -7 0 1 -12 17 -28 33 -30 52 -62 83 -143 18 -45 19 -50 4 -38
-15 13 -16 12 -9 -11 8 -28 8 -26 6 -60 -1 -19 -4 -22 -10 -10 -12 21 -17 72
-8 87 8 12 -10 60 -30 81 -7 7 -13 20 -13 28 0 13 -12 19 -33 15 -5 -1 -6 2
-3 7 7 11 -22 52 -36 52 -6 0 -21 8 -32 17 -11 10 -6 0 11 -21 47 -58 27 -70
-39 -24 -14 10 -31 18 -36 18 -6 0 -13 6 -16 13 -3 6 -3 1 0 -13 12 -50 -13
-4 -47 84 -22 57 -40 91 -51 94 -10 2 -18 9 -18 15 0 6 -2 8 -5 5 -5 -5 38
-91 60 -118 7 -8 20 -37 30 -65 10 -27 22 -54 27 -59 15 -18 8 -27 -12 -16
-11 6 -20 18 -20 28 0 9 -16 30 -35 45 -30 24 -35 25 -35 10 0 -15 -2 -16 -10
-3 -6 9 -5 17 1 21 23 14 -79 129 -112 129 -8 0 -2 -10 14 -21 15 -11 27 -26
27 -32 0 -6 -7 -2 -15 9 -20 27 -19 8 3 -28 11 -21 13 -32 6 -35 -8 -3 -5 -16
7 -40 10 -20 16 -40 13 -45 -3 -5 0 -15 6 -23 6 -8 9 -19 6 -24 -4 -5 -2 -12
4 -16 26 -16 62 -125 41 -125 -6 0 -11 6 -11 14 0 7 -11 35 -25 61 -14 26 -24
52 -22 58 3 9 -48 67 -59 67 -2 0 7 -18 21 -40 14 -22 35 -64 46 -92 22 -57
35 -178 19 -178 -6 0 -10 3 -10 8 0 4 -7 40 -15 81 -16 74 -32 117 -42 108 -2
-3 3 -19 11 -36 25 -47 19 -56 -16 -22 -17 17 -37 31 -44 31 -7 0 -15 6 -18
13 -3 6 -2 -1 1 -17 9 -43 -12 -24 -33 29 -24 65 -27 50 -3 -24 10 -35 17 -72
14 -83 -4 -10 -2 -18 4 -18 6 0 16 -20 23 -45 7 -25 15 -40 19 -33 9 15 29
-57 28 -102 -1 -32 -2 -33 -9 -10 -5 17 -8 19 -9 8 -1 -10 -5 -18 -11 -18 -11
0 -19 27 -24 91 -2 27 -15 63 -30 87 -29 46 -42 57 -22 18 15 -29 14 -128 -1
-133 -13 -5 -1 -56 19 -81 11 -13 10 -15 -5 -9 -10 4 -21 7 -23 7 -2 0 -4 7
-4 16 0 9 -10 49 -22 90 -15 51 -28 79 -42 86 -18 10 -19 9 -9 -4 15 -17 63
-142 63 -161 0 -6 -8 -3 -16 8 -16 19 -16 19 -9 -5 4 -14 12 -30 17 -37 10
-13 0 -22 -34 -28 -12 -3 -26 1 -30 8 -5 9 -8 7 -8 -4 0 -10 -12 -19 -31 -23
-47 -9 -48 -9 -64 26 -10 23 -13 25 -8 8 3 -14 6 -32 7 -40 1 -8 5 -18 10 -22
6 -3 11 -19 12 -35 2 -15 6 -39 10 -52 5 -18 4 -23 -7 -19 -8 3 -14 13 -14 24
0 28 -17 44 -36 33 -12 -6 -21 -2 -33 14 l-17 22 12 -23 c13 -29 23 -81 12
-67 -5 6 -17 15 -28 21 -11 6 -24 27 -28 48 -5 20 -13 36 -17 36 -5 0 -5 -14
0 -32 10 -32 4 -78 -9 -78 -4 0 -7 -10 -7 -22 2 -36 -30 -34 -38 2 -6 30 -26
34 -26 5 0 -17 -43 -30 -61 -20 -8 6 -9 -2 -5 -26 l7 -34 -16 28 c-9 15 -20
27 -26 27 -6 0 -3 -7 5 -16 19 -19 20 -26 4 -42 -18 -18 -68 -15 -68 4 0 8 -4
13 -9 10 -5 -3 -7 -15 -4 -25 4 -15 -5 -24 -36 -41 l-41 -21 -10 26 c-13 33
-18 32 -12 -4 5 -38 -23 -49 -49 -19 l-20 23 13 -23 c11 -19 11 -24 -2 -32
-18 -11 -30 -4 -30 21 0 10 -4 19 -10 19 -5 0 -7 -13 -4 -29 5 -23 2 -30 -18
-36 -39 -13 -43 -11 -50 25 l-6 35 1 -40 c2 -35 -1 -41 -26 -49 -22 -8 -30 -7
-37 4 -8 13 -10 12 -10 -2 0 -26 -39 -33 -56 -11 -13 17 -14 16 -10 -12 2 -16
5 -32 5 -35 1 -3 5 0 9 7 4 6 20 15 36 19 22 5 28 4 24 -7 -3 -8 -15 -16 -29
-17 -13 -2 -29 -8 -36 -14 -7 -5 -17 -7 -22 -4 -5 4 -12 2 -16 -4 -9 -15 -25
-12 -25 5 0 8 6 15 13 15 8 0 7 3 -3 10 -19 11 -23 7 -24 -27 -1 -24 -5 -28
-33 -29 -24 -1 -30 3 -26 14 4 10 1 13 -8 10 -8 -3 -14 -16 -14 -29 0 -16 -7
-25 -20 -27 -11 -3 -23 -9 -26 -14 -4 -7 -13 -6 -26 1 -23 12 -34 6 -27 -14 3
-7 -7 -17 -25 -23 -22 -8 -31 -7 -34 1 -2 7 -13 2 -26 -13 -22 -25 -22 -25
-18 -2 4 14 0 22 -9 22 -8 0 -14 -10 -14 -24 0 -15 -7 -27 -17 -30 -30 -8 -82
-18 -89 -16 -4 1 -13 -13 -21 -32 -11 -26 -16 -30 -23 -18 -8 12 -11 11 -16
-7 -7 -26 -50 -39 -72 -21 -13 11 -15 10 -9 -5 4 -10 7 -20 7 -22 0 -2 17 -1
37 2 31 5 35 4 30 -10 -4 -11 -1 -17 8 -17 25 0 16 -17 -16 -30 -18 -8 -26
-16 -19 -20 16 -10 89 -4 104 9 7 6 39 17 72 25 67 16 130 41 139 55 3 5 13
10 23 9 19 0 46 10 267 102 83 34 173 69 200 77 28 8 68 23 90 32 22 10 63 28
90 40 28 12 183 69 345 127 162 58 338 121 390 139 261 94 378 109 632 80 205
-23 424 -6 716 54 75 16 181 45 235 65 l98 37 27 -21 c61 -47 225 -203 352
-335 298 -308 521 -544 591 -625 129 -149 359 -379 502 -501 135 -117 169
-140 147 -99 -9 17 -8 20 7 20 15 0 16 2 3 10 -13 9 -13 10 0 10 11 1 10 4 -5
16 -19 15 -19 16 13 12 17 -3 32 -1 32 4 0 8 -19 12 -48 11 -7 -1 -11 2 -8 5
11 10 -16 32 -39 32 -30 0 -55 10 -55 21 0 5 3 8 8 8 20 -3 42 2 42 11 0 5
-10 9 -22 7 -14 -1 -24 4 -24 13 -1 8 -2 21 -3 29 -1 7 -7 11 -16 7 -18 -6
-21 19 -4 30 7 4 -1 12 -19 20 -32 13 -50 50 -38 79 4 11 -1 15 -17 15 -12 0
-34 8 -47 17 -13 10 -33 17 -44 18 -20 0 -36 25 -17 25 6 0 11 5 11 10 0 6 -7
10 -15 10 -8 0 -15 4 -15 9 0 4 -11 6 -24 4 -13 -3 -27 0 -30 6 -5 7 6 11 31
12 l38 0 -35 12 c-47 16 -48 43 -1 39 28 -3 31 -1 20 10 -7 8 -25 12 -41 10
-21 -3 -28 0 -28 13 0 9 -10 30 -21 47 -17 23 -19 32 -9 38 22 13 -5 20 -61
14 -41 -4 -59 -1 -74 11 -20 16 -20 16 1 10 11 -3 36 1 55 9 l34 15 -36 1
c-45 0 -55 9 -29 27 32 23 23 31 -29 27 -43 -3 -51 0 -56 16 -7 22 -55 28 -55
8 0 -7 -6 -4 -12 7 -7 11 -18 26 -25 33 -7 7 -13 17 -13 22 0 12 35 18 53 9
12 -7 15 -5 14 11 -1 11 -7 22 -14 24 -17 7 -17 21 0 38 12 11 11 16 -2 28 -8
8 -18 13 -21 11 -3 -3 -7 4 -9 14 -2 14 1 16 15 11 17 -6 17 -6 1 12 -19 21
-22 48 -7 57 6 3 10 12 10 18 0 7 -5 4 -11 -6 -14 -23 -29 -22 -29 4 0 11 -4
17 -10 14 -5 -3 -10 -15 -10 -26 0 -10 -4 -19 -10 -19 -5 0 -10 4 -10 9 0 19
21 66 34 76 16 13 30 95 16 95 -17 0 -11 28 8 33 15 4 15 5 0 6 -9 0 -20 10
-23 21 -3 11 -11 20 -16 20 -5 0 -9 5 -9 11 0 5 5 7 10 4 6 -3 10 4 10 17 0
17 3 19 9 9 7 -11 9 -11 13 0 2 7 -4 21 -14 31 -10 10 -18 30 -18 46 0 15 -3
37 -6 50 -4 13 -2 22 4 22 6 0 17 -27 24 -61 11 -53 13 -57 20 -34 4 15 3 38
-3 52 -12 32 -12 80 1 88 5 3 16 -8 25 -25 8 -16 19 -29 24 -27 4 1 47 -35 95
-80 48 -46 90 -83 94 -83 4 0 -43 49 -105 108 -96 92 -112 111 -109 135 3 27
16 51 16 28 0 -7 10 -11 24 -9 13 1 30 -3 39 -10 10 -9 17 -10 22 -2 4 6 1 9
-6 8 -8 -2 -17 13 -23 36 -10 36 -8 39 24 67 19 16 43 29 52 29 12 0 15 5 11
18 -6 16 -5 16 14 -1 19 -16 20 -16 33 10 24 51 38 88 51 130 6 23 15 40 19
38 5 -3 21 2 36 10 23 11 29 22 29 47 0 17 6 33 14 36 9 3 11 -1 6 -17 -8 -27
11 -28 25 -1 6 11 20 20 31 20 13 0 20 6 18 18 -3 32 1 52 11 52 5 0 7 -7 4
-15 -4 -8 -2 -15 4 -15 5 0 12 9 15 20 3 11 0 20 -6 20 -7 0 -7 4 1 12 10 10
15 10 21 0 7 -11 9 -10 14 2 4 9 12 16 19 16 7 0 152 -141 323 -313 389 -394
566 -538 861 -703 118 -66 288 -176 384 -249 73 -55 116 -83 107 -68 -21 33
-349 252 -537 358 -245 138 -446 304 -805 666 -165 166 -324 319 -352 341 -36
26 -53 46 -53 61 0 12 14 103 30 202 33 197 35 232 19 268 -10 21 -6 31 30 78
38 51 47 75 42 124 -3 44 -25 74 -85 118 -58 43 -123 68 -204 79 l-22 3 25 37
c77 113 48 304 -54 355 -24 12 -49 24 -55 26 -7 2 0 25 18 60 23 46 28 66 24
105 -5 49 -56 176 -91 226 -25 35 -90 66 -137 65 -30 -1 -28 -2 14 -10z"/>
<path d="M6398 4028 c-10 -12 -18 -26 -18 -32 0 -5 -9 -1 -20 9 -19 18 -20 17
-20 -5 0 -16 -22 -44 -67 -88 -65 -62 -67 -64 -48 -79 14 -11 15 -14 4 -10 -9
3 -22 0 -28 -6 -8 -8 -11 -7 -11 6 0 9 -4 17 -10 17 -5 0 -10 -7 -10 -15 0
-22 -12 -18 -36 12 l-21 27 2 -33 c2 -28 -1 -32 -17 -27 -14 3 -18 1 -14 -10
3 -8 9 -21 12 -29 4 -9 1 -15 -9 -15 -8 0 -17 -10 -20 -22 -5 -19 -8 -20 -23
-7 -15 12 -16 12 -10 -9 4 -12 3 -22 -2 -22 -5 0 -22 -12 -37 -26 -15 -14 -33
-23 -40 -20 -17 6 -27 -34 -13 -51 9 -11 6 -12 -16 -3 -36 13 -36 13 -36 -9 0
-15 -6 -19 -25 -17 -14 1 -28 6 -32 9 -13 14 -25 6 -13 -8 10 -12 9 -15 -6
-16 -16 0 -16 -2 4 -11 24 -12 31 -34 7 -24 -8 3 -22 9 -31 13 -14 5 -16 2
-10 -20 4 -16 2 -27 -3 -27 -6 0 -8 -7 -5 -15 4 -8 1 -22 -5 -29 -13 -16 2
-32 19 -21 14 9 13 -8 -2 -23 -8 -8 -15 -8 -24 -1 -9 8 -11 5 -8 -9 3 -10 -2
-24 -10 -31 -17 -14 -22 -36 -7 -26 5 3 16 -4 24 -15 9 -13 20 -18 31 -14 10
4 18 0 22 -10 3 -9 11 -16 17 -16 7 0 7 4 -1 12 -7 7 -12 18 -12 26 0 8 -10
22 -22 32 -18 15 -21 22 -12 36 19 32 37 30 29 -4 -8 -38 9 -50 36 -26 23 21
38 10 21 -16 -9 -14 -9 -20 -1 -20 6 0 8 -8 5 -17 -3 -10 8 -3 25 15 17 20 36
31 45 28 8 -3 15 1 15 9 1 8 2 21 3 28 1 6 12 12 26 12 18 0 24 5 22 18 -3 20
18 23 38 5 12 -11 12 -10 2 4 -10 12 -10 18 -2 23 6 4 14 5 16 2 3 -3 14 3 25
14 18 18 44 24 78 20 7 -2 10 3 6 9 -4 6 -1 18 7 27 11 15 11 16 -6 10 -16 -6
-17 -5 -6 8 8 9 21 13 32 9 10 -3 18 -2 17 3 -3 20 2 27 11 13 8 -12 10 -11
10 6 0 23 26 51 37 41 3 -4 0 -15 -8 -24 -13 -17 -13 -17 7 -1 16 14 23 15 33
5 11 -10 12 -5 7 25 -6 30 -3 39 17 55 13 10 22 23 20 28 -2 6 5 12 14 13 35
4 53 8 59 15 4 4 2 7 -4 7 -7 0 -12 5 -12 11 0 6 6 9 14 6 19 -8 52 42 61 91
7 42 18 53 29 30 3 -7 3 -2 0 12 -9 37 -78 174 -89 177 -5 2 -18 -7 -27 -19z"/>
<path d="M5321 3265 c-24 -14 -50 -33 -57 -42 -10 -15 -14 -15 -28 -4 -22 18
-22 -6 0 -37 12 -18 13 -26 4 -37 -18 -22 -32 -18 -25 7 6 17 4 20 -10 15 -9
-4 -20 -7 -24 -7 -9 0 -1 -73 9 -80 4 -3 4 -15 -1 -28 -12 -33 -44 -25 -44 10
1 15 -3 24 -7 22 -12 -8 -10 -38 4 -52 15 -15 48 -16 48 -1 0 6 9 9 20 6 11
-3 20 -1 20 5 0 5 7 3 15 -5 12 -13 19 -12 55 5 22 11 40 22 40 25 0 2 -4 2
-9 -1 -5 -3 -15 1 -22 10 -10 13 -10 17 2 25 8 5 24 9 37 9 12 0 22 4 22 8 0
4 14 13 30 19 24 9 30 9 30 -2 0 -19 -17 -28 -23 -13 -4 9 -6 8 -6 -2 -1 -9
-13 -23 -28 -33 l-28 -17 30 6 c40 8 107 52 100 65 -4 5 -10 7 -14 5 -4 -3
-15 19 -24 48 -16 49 -47 94 -47 68 0 -6 5 -14 10 -17 8 -5 7 -11 -1 -21 -16
-20 -27 -17 -35 8 l-7 23 -8 -23 c-9 -24 -29 -22 -29 3 0 16 31 35 75 46 l30
7 -30 1 c-16 0 -50 -11 -74 -24z"/>
<path d="M5513 3007 c-24 -5 -43 -14 -43 -19 0 -5 -5 -6 -11 -3 -18 12 -5 -49
15 -66 14 -11 16 -18 8 -23 -7 -4 -12 0 -12 10 0 10 -3 15 -6 11 -4 -3 -15 4
-24 16 -13 16 -15 26 -8 35 6 6 7 12 2 12 -11 -1 -54 -38 -73 -63 -12 -15 -12
-17 2 -11 10 3 20 -2 27 -15 6 -12 7 -21 3 -21 -4 0 0 -5 10 -11 23 -13 22
-35 -2 -42 -15 -3 -18 0 -17 17 2 12 0 30 -4 40 -5 17 -8 16 -23 -8 -17 -25
-17 -28 0 -51 20 -27 38 -30 77 -15 18 6 26 6 26 -1 0 -6 9 -8 20 -4 32 10 23
-5 -11 -17 -16 -6 -28 -12 -25 -15 2 -2 51 14 108 36 56 22 107 40 113 38 5
-1 8 -10 7 -19 -2 -10 2 -18 7 -18 15 0 14 57 -1 63 -10 3 -10 9 0 26 15 26
16 39 0 23 -17 -17 -38 -15 -38 3 0 8 -9 15 -20 15 -23 0 -27 18 -5 26 11 5
12 9 2 20 -6 7 -18 20 -25 29 -14 17 -19 17 -79 2z"/>
<path d="M2815 2815 c-7 -11 -28 -16 -68 -17 -45 -1 -60 -6 -68 -20 -5 -10 -7
-22 -4 -27 3 -5 -8 -14 -24 -19 -25 -9 -29 -8 -24 4 3 8 -1 14 -11 14 -9 0
-16 5 -16 12 0 9 -3 9 -12 0 -7 -7 -20 -12 -31 -12 -10 0 -15 -4 -12 -10 6
-10 -13 -15 -46 -12 -9 1 -19 -8 -22 -20 -4 -14 -11 -19 -21 -14 -9 3 -23 9
-31 12 -9 4 -15 0 -15 -9 0 -16 -27 -29 -65 -33 -11 -1 -38 -7 -60 -13 -22 -6
-56 -11 -75 -11 -31 -1 -32 -2 -12 -10 12 -5 22 -14 22 -20 0 -13 -10 -12 -40
4 -16 10 -30 11 -42 5 -9 -5 -27 -8 -40 -6 -19 2 -22 -2 -20 -22 4 -24 3 -24
-22 -8 -29 19 -48 22 -26 4 8 -7 21 -20 29 -29 20 -26 -9 -24 -39 2 -13 11
-37 20 -57 20 -27 0 -33 -4 -33 -20 0 -11 -7 -23 -15 -25 -43 -14 -50 -17 -38
-22 17 -6 -2 -43 -22 -43 -8 0 -15 -7 -15 -15 0 -13 -3 -14 -22 -3 -13 7 -32
13 -43 14 -11 0 -24 2 -30 4 -32 8 -45 0 -39 -26 6 -25 5 -26 -19 -20 -17 4
-29 1 -34 -8 -11 -20 -65 -33 -61 -15 2 9 -8 15 -29 17 -18 2 -33 -1 -33 -7 0
-6 7 -8 15 -5 21 9 19 -10 -5 -31 -17 -15 -24 -16 -46 -7 -33 16 -39 15 -24
-3 21 -25 -2 -42 -35 -27 -14 7 -39 12 -55 12 -23 0 -30 -5 -30 -20 0 -12 -5
-17 -14 -14 -7 3 -16 -2 -19 -10 -8 -20 -37 -20 -63 -1 -22 17 -44 19 -44 5 0
-5 3 -9 8 -9 17 3 32 -2 32 -9 0 -5 -18 -9 -41 -10 -50 -2 -80 -17 -73 -37 9
-22 -19 -18 -39 5 -24 28 -21 33 11 26 20 -5 23 -4 12 4 -8 5 -23 10 -34 10
-14 0 -17 -5 -12 -23 5 -22 3 -23 -37 -21 -23 1 -55 7 -70 13 -16 6 -36 11
-45 11 -9 -1 0 -7 21 -15 47 -16 54 -22 40 -36 -8 -8 -24 -5 -58 10 -55 24
-66 26 -40 8 19 -15 13 -37 -11 -37 -8 0 -14 -8 -14 -19 0 -13 -7 -18 -26 -18
-14 0 -21 2 -16 6 18 11 -2 31 -26 24 -12 -3 -19 -9 -16 -15 7 -11 -49 -6 -57
5 -3 5 -9 2 -12 -6 -4 -11 5 -21 29 -32 29 -14 33 -19 23 -31 -8 -10 -22 -13
-38 -9 -24 5 -25 4 -7 -9 26 -21 14 -50 -16 -41 -22 7 -22 7 -3 -8 22 -17 45
-12 45 10 0 10 6 13 16 9 9 -3 18 -6 20 -6 2 0 4 -9 4 -20 0 -12 -7 -20 -16
-20 -14 0 -14 -3 -4 -15 7 -9 19 -14 27 -11 8 3 37 -3 64 -14 51 -19 51 -19
46 1 -3 12 2 23 14 29 13 7 19 7 19 0 0 -5 5 -10 10 -10 6 0 5 8 -2 20 -8 13
-16 16 -22 10 -14 -14 -26 -12 -26 4 0 16 -24 28 -42 21 -20 -7 -39 10 -32 28
7 19 29 23 39 7 9 -14 112 -60 135 -60 11 0 20 5 20 11 0 5 -4 8 -8 5 -13 -8
-78 37 -77 54 0 8 5 16 10 17 6 1 9 -4 9 -11 -1 -8 20 -18 53 -26 48 -10 57
-10 73 5 10 9 30 18 44 19 16 0 21 5 15 11 -15 15 -10 29 5 15 16 -13 61 -10
61 4 0 5 -11 15 -25 23 -23 14 -24 14 -6 -1 29 -24 13 -30 -26 -10 -25 14 -29
19 -15 22 9 2 15 8 12 13 -13 20 20 7 65 -25 42 -30 49 -32 71 -21 13 8 23 16
22 19 -8 18 -1 27 18 21 15 -5 22 -2 26 14 6 25 16 27 32 7 15 -18 83 -16 89
2 2 7 15 12 28 12 13 0 24 4 24 9 0 10 39 27 52 23 4 -1 10 7 13 18 4 11 15
25 26 30 11 6 18 7 17 3 -2 -4 5 -19 14 -32 14 -20 19 -22 30 -10 7 8 13 20
14 27 1 6 2 16 3 22 0 6 19 7 46 3 39 -5 47 -3 64 18 16 20 22 22 42 12 13 -6
37 -14 54 -18 28 -6 29 -6 12 13 -25 28 -21 40 15 38 20 0 33 4 33 12 0 6 5
12 10 12 6 0 10 -6 10 -12 0 -17 54 -47 84 -48 17 0 22 4 17 16 -3 9 -6 18 -6
20 0 2 -5 4 -11 4 -8 0 -8 -5 1 -15 10 -12 9 -15 -7 -15 -10 0 -27 6 -37 13
-16 12 -16 14 -2 26 9 8 16 22 16 32 0 24 19 34 26 15 3 -9 15 -16 27 -16 11
0 31 -10 44 -22 13 -12 23 -16 23 -10 0 6 -9 18 -21 26 -12 8 -18 19 -15 24 3
6 0 13 -6 16 -7 2 -2 3 12 2 14 -2 31 1 38 6 8 7 12 7 12 -1 0 -7 4 -9 10 -6
5 3 22 -2 37 -12 l28 -17 -25 28 c-23 27 -24 28 -4 22 14 -4 26 -1 34 9 12 14
10 16 -11 11 -31 -8 -52 6 -43 27 5 13 14 15 38 11 17 -3 51 -6 76 -7 44 -2
55 7 73 58 2 5 19 10 38 10 26 0 36 6 44 23 5 12 19 22 29 22 13 0 17 3 10 10
-12 12 -56 1 -48 -12 3 -5 1 -15 -6 -23 -10 -11 -15 -10 -36 7 -23 21 -23 22
-6 39 22 20 68 36 58 20 -5 -7 -1 -9 9 -5 8 4 21 2 28 -3 20 -16 94 -34 111
-27 28 11 13 65 -19 64 -5 0 -2 -5 8 -11 21 -12 23 -39 3 -39 -8 0 -18 10 -22
22 -4 13 -14 28 -23 35 -13 10 -11 11 16 8 18 -2 50 -9 72 -16 29 -8 47 -9 70
-1 19 7 31 7 31 1 0 -5 4 -9 10 -9 5 0 7 13 4 30 -6 29 -5 30 27 30 29 1 141
49 114 49 -5 0 -21 -6 -35 -14 -30 -17 -70 -19 -70 -4 0 6 6 9 13 7 13 -5 49
27 40 36 -10 10 -17 7 -28 -9z"/>
<path d="M5771 2582 c-26 -13 -35 -14 -38 -4 -3 6 -9 12 -14 12 -6 0 -7 -5 -3
-12 5 -8 2 -9 -9 -5 -11 4 -17 1 -17 -8 0 -8 -4 -15 -10 -15 -5 0 -10 -5 -10
-11 0 -14 -30 -38 -47 -39 -7 0 -13 7 -13 17 0 22 -15 6 -16 -18 -2 -32 -4
-33 -17 -15 -13 18 -15 17 -35 -12 -28 -38 -28 -55 -2 -47 13 4 20 2 20 -7 0
-10 2 -10 9 1 7 12 13 12 24 3 7 -7 17 -9 20 -5 4 3 7 1 7 -5 0 -7 5 -12 10
-12 6 0 10 7 10 15 0 8 5 15 11 15 5 0 7 -4 4 -10 -9 -14 -2 -13 60 14 30 14
55 23 55 20 0 -3 7 2 16 10 17 18 34 21 34 7 0 -8 -45 -33 -100 -55 -8 -3 1
-4 20 -1 19 4 51 8 71 10 20 2 40 5 45 6 34 6 64 -3 64 -18 0 -15 2 -16 10 -3
16 24 12 30 -20 30 -32 0 -37 9 -18 28 8 8 8 15 -1 26 -7 8 -9 21 -5 28 4 7
-2 4 -14 -6 -12 -10 -36 -20 -54 -21 -18 -1 -27 0 -20 2 6 3 12 14 12 26 0 16
-3 18 -12 9 -16 -16 -25 -15 -32 4 -3 9 4 25 21 40 30 28 29 28 -16 6z"/>
<path d="M5790 2215 c10 -12 10 -15 0 -15 -7 0 -10 -6 -7 -14 8 -21 -21 -28
-32 -8 -9 16 -10 15 -17 -3 -9 -25 -27 -37 -34 -24 -11 17 -71 -22 -82 -53 -8
-21 -13 -26 -19 -17 -4 7 -10 11 -13 8 -3 -3 0 -14 8 -24 15 -21 36 -13 36 15
0 10 7 21 16 24 24 9 31 -2 10 -17 -16 -12 -16 -13 3 -14 12 -1 21 2 21 8 0 5
7 9 15 9 8 0 15 -5 15 -11 0 -7 12 1 27 15 43 44 57 48 70 20 10 -22 8 -25
-41 -44 -42 -17 -45 -19 -16 -14 19 3 49 15 67 25 19 12 33 15 35 9 2 -6 14 3
26 19 21 29 22 31 3 31 -10 0 -21 -7 -25 -15 -9 -24 -26 -18 -26 9 0 16 7 27
19 31 12 4 18 12 14 21 -3 7 0 14 6 14 6 0 11 4 11 8 0 4 -16 6 -35 4 -21 -3
-35 0 -35 7 0 6 -7 11 -16 11 -14 0 -14 -3 -4 -15z"/>
</g>
</svg>
