<?xml version="1.0" standalone="no"?>
<!DOCTYPE svg PUBLIC "-//W3C//DTD SVG 20010904//EN"
 "http://www.w3.org/TR/2001/REC-SVG-20010904/DTD/svg10.dtd">
<svg version="1.0" xmlns="http://www.w3.org/2000/svg"
 width="920.000000pt" height="920.000000pt" viewBox="0 0 920.000000 920.000000"
 preserveAspectRatio="xMidYMid meet">
<metadata>
Created by potrace 1.16, written by Peter Selinger 2001-2019
</metadata>
<g transform="translate(0.000000,920.000000) scale(0.100000,-0.100000)"
fill="#000000" stroke="none">
<path d="M4174 7182 c-66 -53 -55 -150 20 -186 l34 -16 -38 -98 c-20 -53 -94
-237 -163 -407 -399 -988 -429 -1066 -449 -1163 -43 -207 16 -409 165 -568 61
-66 179 -147 232 -160 17 -4 42 -13 57 -20 39 -20 174 -37 234 -29 35 4 69 18
110 45 94 61 127 144 104 256 -20 96 -96 161 -237 203 -40 12 -73 26 -73 31 0
5 39 178 86 384 l85 376 -35 34 c-30 28 -36 40 -36 74 0 89 116 124 168 50 12
-17 15 -17 45 -1 44 24 160 24 204 0 31 -17 32 -17 62 13 48 49 118 36 150
-27 20 -39 12 -65 -30 -105 l-41 -39 47 -192 c26 -106 67 -273 91 -372 24 -99
44 -187 44 -196 0 -11 -18 -19 -67 -28 -138 -24 -219 -86 -249 -190 -35 -117
21 -238 135 -296 51 -26 253 -17 335 15 97 37 177 90 253 166 57 58 81 91 116
166 25 51 50 114 56 140 16 68 13 218 -5 301 -9 40 -153 414 -321 831 -167
418 -302 765 -299 773 3 7 12 13 20 13 8 0 26 14 40 31 43 51 32 129 -24 162
-44 26 -93 22 -129 -12 l-31 -29 -68 34 c-37 19 -91 39 -120 44 -72 13 -172
-2 -242 -37 l-56 -28 -35 38 c-31 32 -42 37 -80 37 -27 0 -52 -7 -65 -18z
m472 -329 c48 -51 85 -145 91 -233 7 -91 -5 -130 -47 -160 -84 -60 -138 43
-58 111 49 42 34 59 -52 59 -81 0 -90 -13 -40 -60 25 -23 30 -36 30 -73 0 -47
-9 -57 -55 -57 -30 0 -72 50 -81 97 -9 47 11 184 34 236 46 103 122 137 178
80z"/>
<path d="M4811 4409 c-24 -16 -49 -45 -56 -62 -14 -35 -86 -330 -81 -335 2 -1
14 2 28 7 17 6 27 20 32 42 18 92 27 109 67 135 23 14 43 24 45 21 2 -2 -5
-43 -16 -92 -31 -126 -20 -139 65 -81 l50 33 10 -31 c17 -52 88 -49 150 5 53
47 44 64 -15 27 -52 -32 -74 -32 -83 0 -4 16 8 29 54 62 57 40 75 68 67 107
-2 13 -14 19 -38 21 -52 4 -105 -43 -125 -112 -13 -44 -21 -55 -51 -70 -20 -9
-39 -14 -42 -12 -3 3 5 41 16 85 28 100 28 111 -1 111 -13 0 -27 -4 -32 -8 -6
-5 -26 -19 -47 -31 l-36 -21 17 67 c25 97 36 113 73 113 28 0 57 21 58 43 1
20 -70 5 -109 -24z"/>
<path d="M5280 4414 c-44 -38 -54 -63 -91 -225 -33 -147 -33 -179 -3 -179 20
0 124 69 124 82 0 13 -19 9 -51 -9 -15 -9 -32 -14 -36 -10 -7 8 51 263 70 305
7 15 19 22 37 22 25 0 50 16 50 32 0 20 -70 7 -100 -18z"/>
<path d="M3692 4370 c-40 -25 -73 -92 -65 -133 3 -16 21 -40 40 -55 19 -15 41
-40 49 -55 20 -37 2 -76 -48 -100 -35 -17 -40 -17 -71 -2 -19 9 -40 30 -49 48
l-15 32 -17 -32 c-9 -18 -16 -39 -16 -47 0 -26 42 -46 94 -46 98 0 186 71 186
151 0 30 -8 43 -50 83 -37 35 -50 55 -50 76 0 38 43 74 71 59 10 -5 19 -16 19
-24 0 -18 19 -19 42 -2 14 11 15 17 5 38 -17 33 -79 38 -125 9z"/>
<path d="M3918 4320 c-9 -6 -19 -28 -23 -49 -5 -33 -11 -40 -33 -43 -35 -4
-41 -28 -7 -28 20 0 25 -4 21 -17 -49 -164 -25 -209 75 -141 27 18 49 39 49
46 0 17 -7 15 -46 -9 -31 -19 -35 -19 -40 -4 -4 9 -1 41 5 70 12 52 13 53 59
66 l47 13 -43 4 c-32 2 -42 7 -38 17 2 7 8 30 12 49 7 38 -4 45 -38 26z"/>
<path d="M4068 4248 c-21 -12 -38 -28 -38 -35 0 -16 5 -16 31 -3 25 14 25 7
-5 -105 -13 -49 -23 -92 -21 -94 2 -2 15 -1 28 3 21 5 28 18 48 97 19 74 29
94 47 102 17 8 29 8 42 -1 16 -10 20 -7 29 20 6 17 11 33 11 34 0 11 -59 1
-80 -13 -22 -16 -23 -16 -17 0 9 25 -29 22 -75 -5z"/>
<path d="M4278 4245 c-45 -30 -73 -97 -73 -175 0 -50 2 -55 23 -58 13 -2 41 8
63 22 l39 26 0 -25 c0 -34 26 -33 78 5 36 26 42 28 42 12 0 -61 120 -54 164
10 26 37 20 70 -20 103 -25 22 -33 35 -29 48 8 19 45 23 61 7 13 -13 49 24 39
39 -10 16 -78 13 -103 -5 -30 -20 -54 -70 -47 -94 3 -11 19 -29 36 -40 34 -25
36 -40 9 -65 -24 -22 -47 -14 -56 19 -5 21 -9 24 -24 16 -13 -7 -20 -6 -22 2
-3 9 -12 8 -32 -6 -15 -9 -30 -16 -32 -13 -7 6 26 150 37 162 24 25 8 35 -54
35 -50 0 -70 -5 -99 -25z"/>
<path d="M5353 4244 c-49 -28 -57 -50 -17 -40 26 7 27 7 20 -36 -4 -24 -18
-92 -33 -153 -20 -88 -31 -114 -52 -132 l-26 -22 83 -1 c48 0 82 4 82 10 0 6
-13 10 -30 10 -34 0 -35 5 -18 79 11 50 12 51 48 51 80 0 156 108 148 212 -3
39 -6 43 -31 46 -18 2 -43 -6 -66 -21 l-38 -25 5 24 c6 32 -20 32 -75 -2z"/>
</g>
</svg>
