<?xml version="1.0" standalone="no"?>
<!DOCTYPE svg PUBLIC "-//W3C//DTD SVG 20010904//EN"
 "http://www.w3.org/TR/2001/REC-SVG-20010904/DTD/svg10.dtd">
<svg version="1.0" xmlns="http://www.w3.org/2000/svg"
 width="608.000000pt" height="788.000000pt" viewBox="0 0 608.000000 788.000000"
 preserveAspectRatio="xMidYMid meet">
<metadata>
Created by potrace 1.16, written by Peter Selinger 2001-2019
</metadata>
<g transform="translate(0.000000,788.000000) scale(0.100000,-0.100000)"
fill="#000000" stroke="none">
<path d="M4934 7406 c-12 -32 1 -70 26 -77 14 -4 21 -7 17 -8 -4 -1 -3 -9 2
-20 9 -16 7 -17 -14 -14 -14 3 -26 14 -29 29 -4 13 -13 24 -21 24 -8 0 -15 5
-15 10 0 6 -6 10 -14 10 -7 0 -19 7 -26 15 -7 8 -21 15 -32 15 -48 0 -68 -77
-25 -98 22 -10 22 -11 -5 -11 -21 -1 -28 4 -28 18 0 10 -7 22 -16 25 -25 10
-92 7 -99 -4 -3 -5 -24 -10 -45 -10 -44 0 -65 -24 -57 -66 2 -13 0 -24 -4 -24
-5 0 -9 7 -9 15 0 10 -10 15 -31 15 -16 0 -28 -4 -24 -9 3 -5 -4 -13 -15 -16
-12 -4 -34 -19 -49 -33 -16 -15 -43 -38 -60 -51 -18 -13 -35 -37 -38 -52 -3
-17 -10 -26 -18 -23 -7 3 -32 -13 -54 -35 -23 -23 -48 -41 -56 -41 -8 0 -15
-9 -15 -20 0 -11 -4 -20 -10 -20 -19 0 -10 -31 16 -57 19 -18 33 -24 54 -21
23 4 27 2 19 -8 -15 -18 -2 -52 21 -59 11 -3 28 -17 39 -31 18 -23 80 -36 66
-14 -3 6 1 10 9 10 8 0 23 9 33 20 18 19 19 19 31 -10 8 -18 20 -28 32 -27 10
1 17 4 14 8 -2 3 14 9 36 13 22 3 40 10 40 15 0 5 11 12 25 15 14 4 25 10 25
15 0 5 14 12 30 16 17 4 30 11 30 16 0 5 5 9 10 9 23 0 80 72 80 101 0 25 -4
29 -29 29 -16 0 -31 -4 -33 -8 -1 -5 -16 -12 -33 -16 l-30 -7 22 20 c12 12 26
21 31 21 13 0 62 47 62 60 0 5 14 10 30 10 17 0 30 4 30 9 0 5 10 11 21 13 12
2 31 15 42 30 17 22 18 30 7 43 -11 13 -8 15 22 15 27 0 38 6 48 25 7 14 17
25 22 25 4 0 8 9 8 20 0 11 4 20 10 20 15 0 50 33 50 48 0 7 -11 23 -25 36
-14 13 -25 33 -25 45 0 17 -6 21 -35 21 -22 0 -38 -6 -41 -14z"/>
<path d="M4023 6865 c-26 -25 -54 -45 -63 -45 -8 0 -24 -7 -34 -15 -11 -8 -28
-15 -39 -15 -10 0 -16 -4 -13 -9 3 -5 -10 -12 -29 -15 -19 -4 -35 -11 -35 -16
0 -4 -13 -11 -30 -15 -16 -4 -30 -11 -30 -16 0 -5 -9 -9 -19 -9 -11 0 -26 -6
-33 -14 -8 -7 -24 -17 -36 -20 -12 -4 -22 -12 -22 -17 0 -5 -8 -9 -19 -9 -10
0 -24 -7 -31 -15 -7 -8 -19 -15 -26 -15 -8 0 -14 -4 -14 -10 0 -5 -12 -13 -27
-16 -16 -4 -30 -10 -33 -13 -11 -13 -70 -51 -80 -51 -5 0 -10 -4 -10 -10 0 -5
-6 -10 -14 -10 -8 0 -21 -6 -28 -14 -8 -7 -23 -16 -33 -20 -11 -3 -32 -17 -47
-31 -15 -14 -31 -25 -36 -25 -6 0 -12 -7 -16 -15 -3 -8 -11 -15 -17 -15 -7 0
-32 -20 -56 -45 -23 -25 -47 -45 -53 -45 -5 0 -10 -4 -10 -10 0 -5 -16 -12
-35 -16 -19 -3 -35 -10 -35 -14 0 -5 -9 -12 -20 -15 -32 -10 -26 -57 10 -83
16 -12 38 -22 50 -22 11 0 20 -4 20 -9 0 -5 13 -11 29 -14 18 -4 32 -14 36
-28 11 -34 43 -59 75 -59 17 0 30 5 30 10 0 6 6 10 14 10 7 0 32 20 55 45 22
24 52 47 66 51 14 3 25 10 25 15 0 5 6 9 14 9 7 0 19 7 26 15 7 8 21 15 31 15
11 0 19 4 19 9 0 5 12 14 28 20 28 11 64 32 72 42 3 4 15 9 28 13 12 4 22 11
22 16 0 4 11 11 25 14 14 4 25 11 25 16 0 6 6 10 14 10 8 0 21 6 28 13 17 15
48 35 68 44 14 6 81 55 106 78 6 5 22 17 34 25 13 8 32 23 42 33 10 9 22 17
27 17 5 0 11 4 13 8 2 4 20 18 41 31 20 12 37 26 37 31 0 5 14 11 30 15 17 4
30 11 30 16 0 5 8 9 18 9 10 0 30 6 45 13 23 10 27 18 27 58 0 42 -23 89 -44
89 -8 0 -46 38 -46 46 0 4 -10 15 -22 25 -36 32 -72 24 -125 -26z m-88 -202
c-22 -15 -49 -35 -60 -45 -11 -11 -30 -21 -42 -24 -13 -4 -23 -12 -23 -20 0
-8 -5 -14 -10 -14 -10 0 -21 -8 -54 -37 -8 -7 -32 -22 -55 -34 -22 -11 -41
-25 -41 -29 0 -4 -11 -11 -25 -14 -14 -4 -25 -11 -25 -16 0 -6 -5 -10 -11 -10
-6 0 -28 -12 -48 -27 -48 -37 -72 -52 -93 -59 -10 -4 -18 -10 -18 -14 0 -5
-14 -11 -30 -15 -17 -4 -28 -11 -24 -16 3 -5 2 -9 -3 -9 -4 0 -19 -3 -33 -7
-24 -6 -23 -5 6 20 18 15 35 27 38 27 4 0 17 11 30 25 13 14 27 25 32 25 5 0
23 14 41 30 18 17 36 30 42 30 5 0 11 3 13 8 4 9 111 82 121 82 7 0 19 9 51
37 20 17 89 53 103 53 7 0 13 3 13 8 0 4 20 16 45 27 25 11 45 23 45 27 0 6
21 14 45 17 5 0 -8 -11 -30 -26z"/>
<path d="M2845 6125 c-18 -20 -37 -45 -40 -56 -8 -23 -85 -103 -109 -112 -9
-4 -16 -11 -16 -17 0 -5 -7 -10 -15 -10 -9 0 -18 -7 -21 -15 -4 -8 -13 -15
-20 -15 -8 0 -17 -7 -20 -15 -4 -8 -10 -15 -15 -15 -4 0 -22 -13 -39 -30 -17
-16 -34 -30 -39 -30 -4 0 -29 -20 -54 -45 -26 -25 -50 -45 -54 -45 -5 0 -17
-11 -27 -25 -10 -14 -24 -25 -31 -25 -6 0 -25 -13 -41 -30 -16 -16 -34 -30
-41 -30 -6 0 -13 -3 -15 -7 -4 -9 -65 -53 -73 -53 -3 0 -11 -5 -18 -10 -48
-41 -62 -50 -74 -50 -7 0 -13 -4 -13 -9 0 -5 -11 -12 -25 -15 -14 -4 -25 -11
-25 -16 0 -5 -20 -12 -45 -16 -25 -3 -48 -10 -51 -15 -3 -5 -12 -9 -20 -9 -37
0 -67 -75 -41 -101 7 -8 22 -30 33 -49 10 -19 21 -37 24 -40 3 -3 11 -17 17
-32 7 -16 20 -28 28 -28 9 0 13 -4 10 -10 -10 -16 65 -12 81 4 8 8 14 18 14
23 0 5 27 35 61 68 33 33 68 68 77 78 9 9 21 17 26 17 5 0 19 11 32 25 13 14
27 25 31 25 4 0 30 20 56 45 27 25 51 45 53 45 5 0 24 15 55 43 10 9 21 17 24
17 4 0 17 12 95 83 17 15 35 27 40 27 5 0 13 6 17 13 4 7 28 28 53 47 25 19
47 37 50 40 3 3 22 16 42 30 21 14 38 28 38 33 0 4 7 7 15 7 9 0 18 6 21 14 3
8 16 17 30 20 13 4 24 10 24 15 0 5 14 12 30 16 17 4 30 11 30 16 0 5 14 9 31
9 70 0 145 56 134 100 -4 14 -7 25 -8 25 -9 2 -107 72 -107 77 0 15 -70 48
-104 48 -28 0 -44 -8 -71 -35z"/>
<path d="M880 5910 c-8 -5 -37 -10 -63 -10 -27 0 -61 -6 -75 -14 -15 -7 -54
-27 -87 -44 -108 -53 -136 -70 -168 -98 -7 -5 -20 -13 -29 -17 -10 -3 -18 -11
-18 -17 0 -5 -4 -10 -9 -10 -11 0 -81 -64 -81 -74 0 -4 -14 -21 -30 -38 -17
-16 -37 -43 -46 -59 -8 -16 -18 -29 -23 -29 -5 0 -11 -8 -15 -17 -6 -21 -25
-51 -43 -71 -7 -7 -13 -22 -13 -33 0 -10 -4 -19 -9 -19 -5 0 -12 -15 -15 -34
-4 -19 -11 -36 -17 -38 -6 -2 -13 -34 -16 -71 -3 -36 -8 -65 -12 -63 -3 2 -7
-15 -7 -38 -2 -33 0 -36 6 -16 5 17 8 -2 9 -60 1 -97 10 -162 21 -155 4 3 10
-14 13 -37 3 -24 11 -44 16 -46 6 -2 11 -8 11 -13 0 -18 40 -99 49 -99 5 0 11
-8 15 -17 8 -26 37 -69 69 -104 9 -10 17 -23 17 -29 0 -5 4 -10 9 -10 5 0 13
-10 17 -22 3 -12 13 -28 20 -36 8 -7 14 -20 14 -28 0 -8 4 -14 9 -14 5 0 12
-18 16 -40 4 -22 11 -40 16 -40 5 0 9 -9 9 -21 0 -53 73 -136 150 -170 29 -13
270 -5 279 9 3 5 26 12 51 15 24 3 46 11 48 16 2 6 12 11 22 11 9 0 23 7 30
15 7 8 21 15 31 15 10 0 20 4 23 9 3 5 32 26 63 47 32 21 70 49 85 63 45 43
120 108 168 147 56 45 60 70 10 66 -19 -1 -37 -8 -41 -14 -5 -7 -37 -12 -81
-12 -72 -1 -74 0 -111 37 -45 45 -58 74 -47 103 10 25 79 78 130 100 39 16 77
33 103 45 20 9 30 10 35 2 4 -5 16 -13 28 -17 11 -3 36 -20 55 -37 32 -28 34
-34 33 -89 -1 -67 14 -83 50 -53 56 48 206 208 206 220 0 7 4 13 8 13 5 0 8 8
7 18 -2 24 -28 62 -42 62 -7 0 -13 3 -13 8 0 4 -14 15 -30 24 -46 26 -40 77
10 93 42 13 54 33 53 88 -1 27 -6 53 -11 56 -5 3 -13 25 -17 49 -4 23 -10 42
-15 42 -4 0 -11 16 -14 35 -4 19 -11 35 -16 35 -4 0 -11 14 -15 30 -4 17 -10
30 -15 30 -4 0 -11 11 -14 25 -4 14 -11 25 -16 25 -6 0 -10 9 -10 19 0 11 -3
21 -7 23 -5 2 -23 26 -42 53 -19 28 -42 58 -50 67 -9 9 -27 31 -41 48 -13 16
-29 30 -36 30 -7 0 -14 7 -18 15 -3 8 -10 15 -16 15 -6 0 -18 6 -25 13 -32 28
-43 35 -63 41 -12 4 -22 11 -22 16 0 4 -11 11 -25 14 -14 4 -25 10 -25 15 0 5
-13 12 -30 16 -16 4 -32 11 -35 16 -4 5 -33 9 -65 9 -32 0 -62 5 -65 10 -8 13
-145 13 -165 0z m-31 -1429 c10 -10 22 -29 26 -40 3 -12 10 -19 15 -16 5 3 12
-10 16 -30 3 -19 10 -32 15 -29 5 3 9 -4 9 -14 0 -20 -58 -62 -85 -62 -7 0
-21 -7 -30 -16 -19 -20 -127 -24 -133 -5 -2 6 -10 11 -17 11 -8 0 -21 7 -29
16 -9 8 -16 13 -16 10 0 -3 -9 3 -20 14 -11 11 -20 33 -20 48 0 36 21 82 38
82 6 0 12 4 12 9 0 5 18 12 40 16 22 4 40 11 40 16 0 5 27 9 60 9 46 0 65 -5
79 -19z"/>
<path d="M2284 5166 c-3 -8 -4 -25 -2 -38 2 -19 10 -23 46 -26 32 -2 42 -7 42
-21 0 -14 -6 -17 -29 -13 -16 2 -38 -1 -50 -7 -20 -11 -21 -9 -21 30 l0 41
-46 -7 c-50 -7 -84 -34 -84 -65 0 -16 -7 -20 -36 -20 -28 0 -34 3 -26 13 7 8
6 18 -3 31 -12 16 -23 18 -70 13 -44 -4 -60 -11 -76 -31 -11 -14 -28 -26 -38
-26 -23 0 -58 -38 -66 -72 -4 -16 -11 -26 -15 -23 -7 4 -20 -40 -20 -66 0 -5
13 -9 30 -9 l29 0 -44 -46 c-25 -25 -45 -52 -45 -61 0 -8 -5 -11 -11 -7 -8 5
-10 -3 -7 -24 4 -30 3 -30 -32 -27 -31 3 -39 0 -50 -20 -7 -14 -21 -25 -30
-25 -29 0 -42 -26 -39 -73 3 -33 1 -43 -9 -40 -24 10 -61 -7 -102 -47 -23 -22
-46 -40 -51 -40 -5 0 -9 -7 -9 -15 0 -8 -7 -15 -15 -15 -8 0 -15 -4 -15 -10 0
-10 -36 -50 -45 -50 -3 0 -27 -21 -53 -47 -26 -27 -67 -61 -90 -77 -23 -16
-42 -33 -42 -37 0 -5 -7 -9 -15 -9 -8 0 -15 -4 -15 -10 0 -5 -11 -12 -25 -16
-14 -3 -23 -10 -20 -14 3 -5 -5 -12 -17 -16 -13 -4 -25 -10 -28 -13 -3 -4 -23
-18 -45 -31 -22 -13 -42 -27 -45 -30 -10 -12 -88 -70 -94 -70 -3 0 -19 -13
-36 -30 -17 -16 -35 -30 -41 -30 -5 0 -20 -11 -33 -25 -13 -14 -27 -25 -31
-25 -10 0 -22 -10 -103 -89 -35 -34 -67 -61 -71 -61 -5 0 -11 -7 -15 -15 -3
-10 -19 -15 -46 -15 -22 0 -40 -3 -40 -8 0 -4 -10 -12 -22 -17 -13 -6 -27 -20
-33 -32 -5 -13 -13 -23 -17 -23 -15 0 -8 -68 7 -74 8 -3 15 -12 15 -21 0 -8 4
-15 9 -15 5 0 11 -26 13 -57 3 -31 10 -59 16 -61 7 -2 12 -10 12 -17 0 -21 33
-35 80 -35 31 0 47 6 65 26 14 15 25 33 25 40 0 8 5 14 10 14 6 0 10 6 10 14
0 7 12 22 26 32 14 10 32 24 38 29 16 14 48 34 66 42 8 3 31 19 51 35 20 15
42 28 48 28 6 0 11 4 11 10 0 5 11 12 25 16 14 3 25 9 25 13 0 3 22 17 50 30
27 13 50 28 50 32 0 5 6 9 14 9 8 0 21 6 28 14 8 7 24 17 36 20 12 4 22 12 22
17 0 5 6 9 14 9 8 0 16 3 18 8 5 10 66 52 77 52 5 0 11 3 13 8 4 9 65 52 74
52 4 0 17 11 30 25 13 14 27 25 32 25 13 0 202 188 202 200 0 6 6 10 14 10 8
0 16 4 18 9 2 5 26 34 54 63 28 29 58 68 67 87 20 40 22 87 5 94 -7 3 2 6 20
6 26 1 32 5 32 23 0 18 15 18 15 0 1 -16 18 -32 34 -32 21 0 61 32 61 49 0 6
5 11 10 11 19 0 10 43 -15 66 -14 13 -25 34 -25 48 0 13 -6 27 -12 29 -10 4
-10 6 -1 6 7 1 18 -11 25 -26 11 -23 21 -29 55 -31 41 -3 50 1 94 41 10 9 21
17 24 17 3 0 16 10 28 23 12 13 30 26 40 30 9 3 17 11 17 16 0 5 14 12 30 16
17 4 30 10 30 15 0 4 8 10 18 14 25 8 52 27 85 59 16 15 39 27 53 27 15 0 39
15 63 39 22 22 47 41 58 43 19 3 33 58 14 58 -6 0 -11 7 -11 15 0 8 5 15 10
15 6 0 10 11 10 25 0 16 -6 25 -16 25 -11 0 -14 6 -9 20 12 37 -3 60 -39 60
-17 0 -36 -4 -42 -10 -6 -6 -8 4 -6 30 l4 40 -51 0 c-36 0 -53 -4 -57 -14z
m-842 -924 c-23 -20 -58 -50 -78 -67 -21 -16 -48 -42 -62 -57 -14 -15 -33 -30
-44 -34 -10 -3 -16 -10 -13 -15 4 -5 0 -9 -8 -9 -8 0 -17 -7 -21 -15 -3 -8
-11 -15 -19 -15 -7 0 -26 -13 -42 -30 -16 -16 -35 -30 -42 -30 -7 0 -13 -4
-13 -10 0 -5 -11 -12 -24 -16 -14 -3 -27 -12 -30 -20 -3 -8 -12 -14 -21 -14
-8 0 -15 -4 -15 -10 0 -5 -6 -10 -13 -10 -8 0 -24 -9 -37 -20 -13 -11 -29 -20
-37 -20 -7 0 -13 -4 -13 -9 0 -4 -22 -19 -50 -32 -27 -13 -50 -27 -50 -31 0
-5 -12 -8 -27 -7 -27 0 -27 1 -5 9 12 5 22 14 22 20 0 5 6 10 14 10 8 0 16 7
20 15 3 8 12 15 21 15 8 0 15 4 15 10 0 5 11 12 24 16 14 3 27 12 30 20 3 8
13 14 21 14 9 0 13 5 10 10 -3 6 1 10 10 10 8 0 23 9 32 20 10 11 23 20 30 20
7 0 13 5 13 10 0 6 5 10 11 10 6 0 16 6 24 13 30 28 56 47 65 47 6 0 10 5 10
10 0 6 10 15 23 21 39 17 72 39 62 39 -5 1 4 7 20 14 17 7 41 25 55 39 14 15
31 27 38 27 6 0 12 4 12 8 0 4 12 15 28 24 15 9 40 28 57 42 46 40 44 20 -3
-22z"/>
<path d="M4947 4739 c-26 -17 -56 -44 -67 -59 -19 -27 -124 -439 -115 -449 3
-2 18 2 34 8 26 11 31 22 51 102 l22 90 52 29 c62 36 64 31 37 -78 -25 -98
-27 -152 -6 -152 24 0 145 80 145 96 0 18 -3 18 -50 -6 l-40 -20 0 22 c0 13
11 66 25 118 30 117 30 120 2 120 -19 0 -58 -20 -144 -73 -9 -6 -9 5 2 40 7
26 20 74 29 105 18 64 45 90 86 82 21 -5 30 0 43 20 23 35 22 36 -21 36 -26 0
-53 -10 -85 -31z"/>
<path d="M5527 4720 c-53 -47 -61 -68 -112 -290 -51 -220 -39 -244 76 -165 38
27 69 54 69 62 0 18 -5 17 -56 -13 -60 -35 -60 -24 -8 188 47 192 54 206 100
210 25 2 42 10 52 26 14 22 14 22 -30 22 -38 0 -52 -6 -91 -40z"/>
<path d="M2252 4715 c-12 -13 -24 -37 -28 -52 -4 -16 -10 -32 -14 -38 -5 -5
-11 -37 -14 -70 -3 -33 -10 -61 -16 -63 -5 -2 -10 -16 -10 -32 0 -16 -7 -35
-15 -44 -8 -8 -15 -17 -15 -21 0 -7 -130 -135 -137 -135 -3 0 -14 -10 -25 -22
-22 -26 -19 -69 7 -95 23 -22 85 -21 131 2 22 11 41 23 44 26 3 3 15 11 28 18
24 13 64 71 95 136 10 22 23 47 28 55 5 8 12 22 15 30 3 8 11 24 17 35 17 29
22 261 7 280 -20 24 -73 19 -98 -10z"/>
<path d="M3558 4667 c-56 -34 -81 -72 -86 -131 l-4 -52 61 -61 c75 -74 80
-106 27 -159 -29 -29 -41 -34 -79 -34 -52 0 -101 33 -111 75 -9 36 -21 31 -40
-15 -22 -57 -20 -68 17 -90 112 -69 317 45 317 176 0 33 -8 44 -65 97 -54 49
-65 65 -65 91 1 74 99 117 116 50 3 -13 9 -24 13 -24 17 0 51 33 51 49 0 51
-88 68 -152 28z"/>
<path d="M2457 4653 c-4 -3 -7 -53 -7 -109 0 -57 -4 -105 -9 -108 -4 -3 -11
-29 -13 -58 -3 -29 -11 -54 -17 -56 -6 -2 -11 -11 -11 -20 0 -34 -44 -103
-100 -159 -68 -68 -86 -83 -98 -83 -5 0 -21 -10 -35 -23 -35 -30 -39 -102 -7
-112 11 -4 18 -11 15 -16 -4 -5 14 -9 39 -9 25 0 46 4 46 9 0 5 14 13 32 16
36 8 44 14 106 77 59 58 68 69 76 96 4 12 11 22 16 22 4 0 10 8 14 18 3 9 10
25 16 35 24 40 30 53 36 67 3 8 12 29 20 47 8 17 14 52 14 77 0 25 4 46 8 46
4 0 9 35 10 78 l2 77 -45 48 c-33 34 -54 47 -74 47 -15 0 -31 -3 -34 -7z"/>
<path d="M3838 4619 c-27 -10 -31 -17 -43 -76 -5 -26 -12 -33 -29 -33 -13 0
-31 -9 -41 -20 -18 -20 -17 -20 17 -20 l35 0 -18 -77 c-40 -167 -14 -200 98
-126 79 52 91 92 15 51 -58 -32 -70 -19 -53 59 20 95 19 93 56 93 18 0 43 9
56 20 l24 19 -52 1 c-29 0 -53 1 -53 3 0 1 7 27 15 57 8 30 15 56 15 58 0 4
-14 1 -42 -9z"/>
<path d="M4013 4532 c-35 -17 -53 -32 -53 -44 0 -15 3 -17 19 -8 11 5 27 10
36 10 18 0 18 2 -25 -159 l-28 -103 31 6 c17 4 34 12 38 18 4 7 20 60 34 119
25 100 29 108 57 120 23 9 35 10 49 1 10 -7 21 -12 23 -12 5 0 26 59 26 71 0
17 -68 9 -94 -12 l-26 -20 0 20 c0 28 -22 26 -87 -7z"/>
<path d="M4279 4526 c-52 -38 -71 -78 -90 -180 -22 -118 13 -145 108 -81 l52
35 -6 -35 c-5 -31 -3 -35 16 -35 12 0 45 16 74 35 51 35 52 35 55 13 2 -13 9
-29 14 -35 16 -20 84 -15 128 7 45 23 67 51 76 98 6 29 2 36 -42 76 -47 44
-47 44 -31 70 20 30 33 32 59 9 18 -16 20 -16 40 4 32 32 18 53 -36 53 -39 0
-51 -6 -86 -38 -33 -32 -40 -45 -40 -78 0 -34 6 -44 42 -75 39 -34 41 -39 30
-63 -15 -34 -60 -46 -79 -21 -7 11 -13 27 -13 37 0 21 -4 22 -31 8 -15 -9 -19
-7 -19 5 0 13 -8 11 -37 -10 -32 -21 -39 -23 -41 -9 -5 24 39 197 54 215 21
24 8 29 -75 29 -70 0 -79 -3 -122 -34z m97 -12 l21 -6 -20 -80 c-18 -72 -23
-82 -58 -105 -69 -46 -85 -15 -50 97 28 90 50 109 107 94z"/>
<path d="M5212 4530 c-50 -36 -77 -86 -93 -172 -16 -89 -2 -122 58 -126 24 -2
55 4 72 13 43 22 101 74 101 91 0 19 -1 19 -60 -21 -59 -40 -85 -44 -100 -16
-17 34 -11 47 38 81 75 53 101 81 108 117 13 68 -52 85 -124 33z"/>
<path d="M5618 4527 c-54 -30 -81 -66 -40 -54 47 13 47 13 45 -25 -2 -31 -60
-291 -79 -350 -4 -15 1 -18 29 -18 32 0 35 3 41 38 4 20 12 54 17 75 9 35 12
37 51 37 57 0 129 56 158 122 27 63 41 139 31 174 -11 43 -63 45 -119 4 -23
-16 -44 -30 -47 -30 -2 0 -2 14 2 30 8 40 -14 40 -89 -3z m190 -60 c5 -40 -26
-132 -54 -162 -26 -28 -81 -35 -90 -10 -5 12 19 142 28 150 24 22 85 55 97 53
9 -2 17 -16 19 -31z"/>
<path d="M2687 4433 c-4 -3 -7 -17 -7 -29 0 -13 -4 -25 -9 -28 -4 -3 -11 -36
-14 -72 -4 -37 -11 -72 -17 -78 -5 -5 -10 -20 -10 -32 0 -13 -4 -25 -9 -29 -5
-3 -12 -19 -16 -35 -4 -17 -10 -30 -15 -30 -5 0 -12 -10 -16 -22 -8 -25 -13
-32 -79 -101 -28 -29 -67 -63 -88 -77 -20 -14 -37 -28 -37 -32 0 -5 -6 -8 -13
-8 -27 0 -67 -45 -67 -74 0 -45 35 -69 89 -62 25 3 47 10 50 15 4 5 21 12 39
16 17 3 32 10 32 15 0 4 10 10 23 14 13 3 36 17 51 31 15 14 31 25 37 25 5 0
9 3 9 8 0 4 14 22 30 41 17 18 30 40 30 48 0 8 5 11 10 8 6 -3 10 3 10 14 0
11 7 26 15 35 8 8 15 19 15 25 0 9 24 63 51 113 12 24 12 238 -1 238 -5 0 -9
3 -8 8 2 11 -14 46 -26 54 -14 10 -50 10 -59 1z"/>
<path d="M1798 4133 c-1 -5 -21 -17 -42 -28 -22 -11 -46 -27 -54 -35 -11 -11
-34 -14 -84 -13 -61 2 -71 0 -93 -23 -25 -24 -33 -67 -17 -91 4 -6 21 -15 37
-19 17 -4 33 -12 37 -18 9 -14 157 -14 166 0 4 6 18 15 31 19 26 8 34 13 86
62 19 18 35 39 35 47 0 8 5 18 10 21 12 8 13 45 1 45 -5 0 -11 9 -14 20 -4 16
-14 20 -50 20 -25 0 -47 -3 -49 -7z"/>
<path d="M2830 4071 c0 -11 -4 -22 -9 -25 -5 -4 -12 -29 -16 -56 -4 -28 -10
-50 -15 -50 -4 0 -11 -16 -14 -35 -4 -19 -10 -35 -14 -35 -4 -1 -32 -23 -61
-50 -30 -27 -71 -57 -90 -67 -20 -10 -40 -24 -44 -30 -4 -7 -16 -13 -25 -13
-23 0 -82 -53 -82 -74 0 -16 67 -56 93 -56 40 0 164 49 195 78 7 6 18 12 23
12 16 0 129 122 129 139 0 5 8 17 18 27 14 14 17 35 17 110 0 88 -1 93 -28
118 -34 32 -77 35 -77 7z"/>
<path d="M440 3942 c-25 -11 -60 -46 -60 -59 0 -7 -4 -13 -10 -13 -5 0 -10 -7
-10 -15 0 -17 -96 -115 -114 -115 -41 0 -84 -111 -56 -145 16 -19 57 -19 76 0
9 8 13 15 10 15 -3 0 0 14 5 30 6 17 17 30 25 30 8 0 14 4 14 9 0 5 10 13 22
17 20 6 31 13 63 42 7 6 17 12 20 12 13 0 95 84 95 97 0 7 5 13 10 13 17 0 11
39 -9 59 -21 21 -59 32 -81 23z"/>
<path d="M1910 3901 c0 -5 -15 -13 -32 -16 -18 -4 -36 -13 -40 -19 -5 -7 -55
-11 -150 -11 l-143 0 -3 -24 c-2 -13 2 -35 9 -48 14 -27 71 -63 100 -63 10 0
19 -4 19 -10 0 -6 40 -10 100 -10 60 0 100 4 100 10 0 6 11 10 24 10 14 0 31
7 40 15 8 8 19 15 24 15 16 0 49 34 56 58 10 31 -2 82 -20 82 -8 0 -14 5 -14
10 0 6 -16 10 -35 10 -19 0 -35 -4 -35 -9z"/>
<path d="M2070 3713 c-8 -2 -29 -11 -47 -19 -17 -8 -43 -14 -58 -14 -15 0 -24
-4 -20 -10 4 -6 -12 -10 -39 -10 -26 0 -46 5 -46 11 0 6 -14 9 -32 7 -31 -3
-33 -5 -33 -42 0 -28 5 -42 20 -50 11 -6 23 -15 27 -21 4 -5 60 -12 125 -13
125 -4 163 6 206 52 21 24 22 79 1 100 -15 15 -72 20 -104 9z"/>
<path d="M2606 3555 c-15 -8 -41 -15 -57 -15 -38 0 -69 -28 -69 -61 0 -43 21
-52 109 -48 69 4 82 7 100 28 23 26 28 80 9 99 -16 16 -57 15 -92 -3z"/>
<path d="M3045 3533 c-16 -3 -34 -9 -39 -14 -6 -5 -20 -9 -33 -9 -13 0 -23 -4
-23 -9 0 -5 -12 -14 -27 -19 -26 -9 -93 -64 -93 -76 0 -3 -14 -20 -30 -38 -58
-63 -87 -88 -101 -88 -6 0 -17 -7 -25 -15 -20 -20 -100 -19 -138 0 -15 8 -33
15 -39 15 -11 0 -107 97 -107 108 0 4 -9 14 -21 22 -11 8 -33 25 -47 38 -61
52 -166 80 -178 47 -4 -8 -12 -15 -20 -15 -8 0 -14 -9 -14 -19 0 -11 -6 -22
-12 -24 -9 -4 -10 -8 -2 -14 6 -4 13 -16 17 -25 4 -13 17 -18 43 -18 48 0 96
-24 111 -55 6 -14 7 -25 2 -25 -5 0 -9 -24 -9 -53 0 -48 4 -57 40 -95 37 -39
40 -45 40 -100 0 -68 19 -98 68 -108 18 -4 29 -10 26 -15 -3 -5 31 -9 75 -9
45 0 81 4 81 9 0 5 14 12 30 16 17 4 30 11 30 16 0 5 11 11 25 15 14 3 25 10
25 15 0 5 8 13 18 16 30 12 41 36 42 90 0 28 5 55 10 58 6 4 8 10 6 14 -3 4 3
17 14 28 10 12 16 24 13 27 -12 12 167 6 187 -6 14 -9 25 -9 42 -1 13 6 42 14
65 16 23 3 50 12 58 21 9 9 20 16 25 16 4 0 11 11 14 25 4 14 11 25 16 25 6 0
10 31 10 70 0 39 -4 70 -10 70 -5 0 -12 10 -15 23 -4 12 -22 30 -41 40 -34 17
-50 18 -109 10z"/>
<path d="M2580 3410 c0 -5 -10 -10 -23 -10 -31 0 -47 -18 -47 -55 0 -45 16
-55 88 -55 83 0 132 27 132 72 0 45 -20 58 -89 58 -34 0 -61 -4 -61 -10z"/>
<path d="M1868 3311 c-10 -10 -18 -23 -18 -29 0 -7 -4 -12 -9 -12 -5 0 -12
-22 -16 -50 -4 -27 -11 -50 -16 -50 -5 0 -9 -9 -9 -19 0 -11 -7 -26 -15 -34
-7 -8 -17 -26 -21 -41 -3 -14 -10 -23 -15 -20 -5 3 -9 1 -9 -5 0 -14 -58 -99
-92 -136 -15 -16 -28 -33 -28 -37 0 -11 -45 -59 -221 -236 -179 -180 -175
-176 -234 -212 -22 -13 -42 -27 -45 -30 -3 -4 -17 -10 -32 -14 -16 -3 -28 -11
-28 -16 0 -6 -5 -10 -12 -10 -20 0 -58 -51 -58 -78 0 -34 30 -80 57 -87 13 -3
23 -10 23 -15 0 -19 131 -11 177 11 23 11 45 25 49 30 11 19 33 8 36 -18 3
-25 7 -28 46 -31 34 -3 48 2 67 20 14 13 25 33 25 46 0 13 4 21 9 18 8 -6 21
63 21 116 0 39 32 85 118 174 7 8 11 14 7 14 -4 0 10 17 29 38 105 109 166
178 166 185 0 5 12 21 28 37 15 15 54 58 87 94 33 36 66 66 73 66 7 0 11 4 7
9 -3 6 10 13 30 17 19 3 35 10 35 14 0 4 16 11 35 14 19 4 35 11 35 16 0 6 11
10 25 10 26 0 75 42 75 65 0 7 6 16 13 18 8 4 9 8 1 14 -6 4 -14 25 -17 47 -8
52 -67 106 -117 107 -69 2 -103 -3 -117 -17 -22 -22 -51 -17 -55 9 -4 29 -64
35 -90 8z"/>
<path d="M3170 3201 c0 -24 -4 -31 -19 -31 -11 0 -21 5 -23 12 -3 8 -38 13
-99 16 -83 4 -97 2 -116 -16 -13 -10 -23 -24 -23 -29 0 -6 -7 -16 -15 -23 -9
-8 -15 -30 -15 -59 0 -39 6 -52 37 -86 l37 -40 90 -4 c101 -4 83 8 196 -122
25 -29 57 -65 73 -81 15 -16 27 -31 27 -33 0 -2 12 -18 28 -34 38 -40 62 -73
62 -84 0 -6 11 -20 25 -33 14 -13 25 -27 25 -31 0 -4 19 -28 41 -53 22 -25 45
-54 50 -65 12 -26 31 -56 47 -73 6 -7 12 -19 12 -27 0 -7 7 -15 15 -19 8 -3
15 -12 15 -21 0 -8 3 -15 8 -15 4 0 19 -21 32 -47 14 -27 28 -50 31 -53 3 -3
9 -45 12 -93 6 -84 8 -90 39 -118 36 -31 78 -38 98 -14 21 26 29 17 32 -36 2
-34 8 -54 18 -59 8 -4 25 -12 37 -18 28 -15 83 -16 83 -2 0 6 9 10 20 10 10 0
31 12 46 27 22 22 25 32 21 65 -6 42 -37 78 -68 78 -10 0 -21 5 -24 10 -3 6
-17 10 -31 10 -13 0 -24 -4 -24 -10 0 -5 -6 -10 -14 -10 -8 0 -22 -7 -30 -16
-15 -14 -16 -12 -16 24 0 23 -5 43 -12 45 -7 3 -3 6 9 6 12 1 24 -3 28 -8 3
-6 26 -13 50 -17 25 -3 48 -10 51 -15 10 -17 64 -9 86 13 17 17 22 34 22 74 0
44 -4 56 -31 83 -18 17 -45 34 -62 37 -17 4 -31 10 -31 14 0 4 -14 10 -30 14
-17 3 -37 11 -46 18 -49 42 -84 77 -84 84 0 5 -8 17 -17 25 -10 9 -41 42 -70
75 -29 32 -66 74 -82 93 -17 19 -31 38 -31 41 0 4 -10 18 -22 32 -13 13 -34
39 -48 58 -14 18 -35 44 -47 57 -12 12 -20 23 -17 23 3 0 -1 6 -8 14 -34 35
-56 66 -62 84 -4 11 -13 23 -21 26 -8 3 -15 12 -15 21 0 8 -4 15 -10 15 -5 0
-12 11 -16 25 -3 14 -10 25 -15 25 -4 0 -11 16 -15 35 -3 19 -10 35 -14 35 -4
0 -10 24 -13 52 -4 29 -11 54 -17 56 -5 2 -10 12 -10 21 0 35 -37 64 -90 69
l-50 5 0 -32z"/>
<path d="M1170 2138 c0 -5 -21 -8 -47 -8 -42 0 -50 -3 -60 -27 -16 -32 -17
-63 -3 -63 6 0 10 -11 10 -23 0 -42 71 -98 113 -89 4 1 7 -4 7 -12 0 -8 -16
-16 -40 -20 -22 -3 -40 -11 -40 -16 0 -6 -4 -10 -10 -10 -15 0 -47 -35 -55
-59 -7 -24 12 -62 60 -116 46 -52 50 -57 58 -75 10 -21 30 -52 45 -68 6 -7 12
-20 12 -28 0 -9 7 -22 15 -30 8 -9 15 -24 15 -35 0 -10 4 -19 9 -19 5 0 12
-13 16 -30 4 -16 10 -30 15 -30 4 0 11 -18 15 -40 4 -22 10 -40 15 -40 5 0 11
-18 15 -40 4 -22 11 -40 16 -40 5 0 9 -9 9 -19 0 -11 7 -26 15 -35 8 -8 15
-20 15 -26 0 -7 6 -24 14 -38 30 -57 46 -132 46 -222 0 -88 1 -93 29 -121 25
-24 37 -29 80 -29 28 0 51 5 51 10 0 6 7 10 16 10 26 0 13 43 -16 51 l-25 7
27 1 c15 1 30 -3 33 -9 3 -5 29 -10 57 -10 61 0 77 16 78 75 0 40 -11 57 -84
138 -14 15 -29 39 -32 52 -3 14 -10 25 -15 25 -5 0 -9 11 -9 24 0 14 -7 31
-15 40 -8 8 -15 24 -15 36 0 12 -7 28 -15 36 -8 9 -15 24 -15 34 0 10 -7 31
-15 46 -8 16 -15 38 -15 49 0 11 -7 29 -15 39 -8 11 -15 30 -15 43 0 13 -4 23
-9 23 -5 0 -12 18 -16 40 -4 22 -11 40 -16 40 -5 0 -9 8 -9 18 0 9 -6 29 -14
44 -8 15 -17 40 -21 57 -4 17 -10 31 -14 31 -5 0 -11 25 -14 56 -3 31 -11 62
-16 67 -6 6 -11 24 -11 39 0 32 -23 74 -57 102 l-22 19 24 23 c18 16 25 34 25
59 0 19 -4 35 -10 35 -5 0 -12 11 -16 25 -4 18 -13 25 -30 25 -13 0 -24 5 -24
10 0 6 -20 9 -50 8 -27 -2 -50 -6 -50 -10z"/>
<path d="M3853 1784 c-7 -3 -15 -21 -19 -40 -3 -19 -10 -34 -15 -34 -5 0 -9
-15 -9 -34 0 -19 -5 -38 -10 -41 -6 -4 -8 -11 -5 -16 4 -5 1 -9 -4 -9 -6 0
-11 -16 -11 -35 0 -19 -4 -35 -9 -35 -6 0 -13 -20 -17 -45 -3 -25 -10 -45 -14
-45 -4 0 -11 -20 -14 -45 -4 -25 -11 -45 -16 -45 -5 0 -12 -20 -16 -45 -3 -25
-10 -45 -14 -45 -5 0 -12 -25 -15 -55 -4 -30 -11 -53 -15 -50 -4 3 -11 -21
-15 -53 -4 -31 -10 -61 -15 -67 -4 -5 -11 -29 -15 -52 -4 -24 -10 -43 -15 -43
-4 0 -10 -19 -13 -42 -3 -24 -11 -44 -16 -46 -6 -2 -11 -12 -11 -22 0 -10 -7
-20 -15 -24 -8 -3 -15 -12 -15 -20 0 -8 -9 -18 -21 -21 -11 -4 -18 -9 -15 -13
3 -3 -4 -10 -17 -16 -12 -6 -26 -21 -32 -34 -5 -12 -13 -22 -17 -22 -5 0 -8
-11 -8 -25 0 -14 5 -25 10 -25 6 0 10 -5 10 -11 0 -22 30 -39 69 -39 23 0 41
4 41 10 0 5 16 12 35 16 19 3 35 10 35 15 0 5 7 9 15 9 9 0 15 -9 15 -24 0
-46 58 -49 100 -6 29 30 30 34 30 125 0 54 4 95 10 95 5 0 12 16 16 35 3 19
10 35 14 35 5 0 11 18 15 40 4 22 10 40 15 40 4 0 11 20 14 45 4 25 14 57 22
73 7 15 14 35 14 45 0 9 4 17 9 17 5 0 11 18 15 40 3 22 11 40 16 40 6 0 10 9
10 19 0 11 5 23 10 26 6 4 8 10 5 15 -3 5 -1 11 5 15 5 3 10 17 10 31 0 13 4
24 9 24 5 0 12 15 15 33 9 49 59 144 84 160 6 4 12 13 12 19 0 6 11 21 25 34
14 13 28 37 31 54 4 16 11 30 16 30 7 0 7 4 1 13 -6 6 -13 24 -17 40 -6 26 -9
27 -64 27 -31 0 -93 2 -137 5 -44 3 -85 2 -92 -1z"/>
<path d="M1323 743 c-13 -2 -23 -9 -23 -14 0 -5 -8 -9 -17 -9 -24 0 -73 -52
-55 -57 6 -3 10 -8 7 -13 -3 -5 17 -31 44 -58 41 -42 50 -57 56 -101 4 -28 11
-51 16 -51 5 0 9 -11 9 -24 0 -31 26 -36 202 -36 76 0 137 -4 134 -8 -2 -4 6
-9 20 -10 13 -1 24 3 24 8 0 6 8 10 19 10 27 0 68 36 87 76 21 43 11 66 -57
137 l-46 47 -97 0 c-57 0 -96 4 -96 10 0 6 -4 10 -10 10 -5 0 -23 12 -39 28
-16 15 -37 33 -47 41 -17 15 -92 23 -131 14z"/>
<path d="M1093 616 c-13 -6 -23 -17 -23 -24 0 -7 -4 -11 -8 -8 -4 2 -9 -6 -10
-20 -1 -13 3 -24 8 -24 6 0 10 -10 10 -22 0 -17 -2 -20 -9 -9 -6 10 -20 12
-47 8 -29 -5 -34 -4 -21 4 9 5 17 22 17 36 0 25 -1 25 -61 21 -33 -2 -64 -9
-67 -14 -4 -6 -15 -13 -24 -17 -10 -3 -18 -14 -18 -24 -1 -17 -1 -17 -11 0
-12 21 -65 23 -85 3 -8 -8 -14 -28 -14 -45 0 -30 1 -31 45 -31 27 0 48 5 50
13 4 8 21 11 50 9 25 -2 51 0 58 4 7 5 1 -1 -13 -13 -14 -13 -26 -18 -28 -13
-5 15 -48 12 -62 -5 -7 -9 -29 -15 -52 -15 -62 0 -84 -32 -50 -73 18 -24 52
-35 52 -17 0 13 57 13 65 0 8 -13 45 -13 45 0 0 6 14 10 30 10 17 0 30 -4 30
-10 0 -5 23 -10 50 -10 28 0 50 5 50 10 0 6 9 10 20 10 15 0 22 9 27 30 4 24
8 28 19 19 8 -6 14 -18 14 -25 0 -31 144 -32 174 -1 18 18 24 163 6 152 -5 -3
-10 0 -10 8 0 8 -18 33 -40 56 -37 38 -43 41 -92 40 -29 -1 -63 -6 -75 -13z"/>
<path d="M3416 559 c3 -5 -10 -9 -28 -9 -42 0 -68 -28 -68 -75 0 -18 -4 -37
-10 -40 -14 -9 -12 -106 3 -138 21 -47 96 -34 110 19 3 14 5 12 6 -8 1 -32 36
-68 66 -68 13 0 27 -10 35 -25 11 -21 21 -25 57 -25 32 0 43 -4 43 -15 0 -11
11 -15 39 -15 21 0 59 -3 85 -6 44 -6 46 -6 46 19 0 13 -7 27 -15 31 -22 8
-18 36 5 36 13 0 20 -7 20 -18 0 -28 21 -42 61 -42 24 0 39 5 43 15 9 25 -11
63 -36 68 -13 2 -2 5 25 6 46 1 47 0 47 -29 0 -30 0 -30 58 -30 32 0 63 5 70
12 22 22 14 49 -18 61 -21 8 -30 18 -30 33 0 25 -17 34 -64 34 -30 0 -31 1
-28 38 3 32 0 39 -24 50 -16 6 -38 12 -50 12 -13 0 -26 5 -29 10 -3 6 -1 10 4
10 18 0 12 35 -9 53 -21 18 -136 26 -126 8 10 -15 -43 -19 -55 -5 -6 8 -29 17
-50 20 -21 4 -36 10 -34 14 3 5 -31 8 -75 8 -45 0 -78 -4 -74 -9z"/>
</g>
</svg>
